<svg width="65" height="33" viewBox="0 0 65 33" fill="none" xmlns="http://www.w3.org/2000/svg">
<path d="M0.810059 17.5H64.5001V18.08H0.810059V17.5Z" fill="black"/>
<path d="M0.499981 7.88998C0.499981 7.72998 0.519981 7.55998 0.519981 7.39998C0.539981 6.31998 0.549981 5.23998 0.569981 4.16998C0.569981 3.93998 0.649981 3.72998 0.809981 3.56998C1.54998 2.80998 2.29998 2.03998 3.03998 1.27998C3.23998 1.07998 3.46998 0.97998 3.74998 0.97998C4.97998 0.97998 6.20998 0.97998 7.42998 0.97998C7.70998 0.97998 7.93998 1.07998 8.13998 1.27998C8.87998 2.03998 9.62998 2.80998 10.37 3.56998C10.53 3.72998 10.61 3.92998 10.62 4.15998C10.63 4.74998 10.64 5.33998 10.65 5.93998C10.66 6.71998 10.68 7.49998 10.69 8.27998C10.69 8.47998 10.64 8.67998 10.52 8.84998C9.07998 10.96 7.64998 13.07 6.20998 15.18C6.16998 15.24 6.11998 15.3 6.06998 15.36C5.94998 15.52 5.79998 15.66 5.59998 15.71H5.54998C5.33998 15.64 5.18998 15.49 5.05998 15.32C5.02998 15.28 4.98998 15.23 4.95998 15.19C3.67998 13.31 2.39998 11.43 1.12998 9.54998C0.889981 9.19998 0.58998 8.87998 0.47998 8.44998V7.90998L0.499981 7.88998ZM8.07998 3.42998C6.39998 2.97998 4.74998 3.15998 3.11998 3.59998V9.80998H3.26998C4.03998 9.80998 4.80998 9.80998 5.58998 9.80998C5.97998 9.80998 6.35998 9.74998 6.72998 9.62998C7.34998 9.42998 7.86998 9.09998 8.20998 8.51998C8.49998 8.01998 8.60998 7.46998 8.50998 6.88998C8.39998 6.22998 7.93998 5.87998 7.33998 5.68998C6.82998 5.52998 6.28998 5.49998 5.75998 5.52998C5.42998 5.54998 5.10998 5.58998 4.78998 5.61998V6.57998C5.06998 6.55998 5.34998 6.52998 5.61998 6.51998C6.04998 6.50998 6.47998 6.51998 6.87998 6.70998C7.20998 6.86998 7.33998 7.12998 7.28998 7.47998C7.26998 7.57998 7.24998 7.68998 7.19998 7.78998C6.94998 8.31998 6.49998 8.55998 5.94998 8.59998C5.46998 8.62998 4.99998 8.61998 4.51998 8.61998C4.43998 8.61998 4.36998 8.61998 4.28998 8.60998V4.46998C4.86998 4.36998 5.44998 4.29998 6.02998 4.29998C6.61998 4.29998 7.19998 4.38998 7.77998 4.50998L8.09998 3.42998H8.07998Z" fill="black"/>
<path d="M15.3401 12.0501V4.36008C15.3401 4.36008 15.4201 4.33008 15.4601 4.33008C16.4601 4.33008 17.4601 4.33008 18.4601 4.36008C19.0301 4.38008 19.5701 4.53008 20.0001 4.93008C20.5401 5.42008 20.6401 6.06008 20.5101 6.73008C20.3801 7.39008 19.9201 7.78008 19.3001 7.99008C19.2501 8.01008 19.1901 8.02008 19.1401 8.04008C19.1301 8.04008 19.1201 8.05008 19.1201 8.05008C19.3601 8.14008 19.6301 8.20008 19.8701 8.32008C20.6501 8.72008 20.9601 9.53008 20.7201 10.4801C20.5101 11.2801 19.9601 11.7301 19.2001 11.9301C18.8601 12.0201 18.5101 12.0701 18.1601 12.0801C17.2701 12.1001 16.3801 12.0801 15.4901 12.0801C15.4501 12.0801 15.4101 12.0801 15.3501 12.0701L15.3401 12.0501ZM16.9001 10.8401C17.4701 10.8301 18.0301 10.9001 18.5701 10.6901C19.0101 10.5201 19.2101 10.2201 19.2101 9.76008C19.2101 9.25008 19.0001 8.92008 18.5701 8.75008C18.0301 8.54008 17.4601 8.63008 16.9001 8.61008V10.8301V10.8401ZM16.9001 7.43008C17.4001 7.51008 18.1001 7.44008 18.4501 7.30008C18.8201 7.15008 19.0101 6.86008 18.9901 6.48008C18.9701 6.05008 18.7901 5.78008 18.3901 5.66008C17.9101 5.51008 17.4101 5.55008 16.9201 5.56008C16.9201 5.61008 16.9001 5.63008 16.9001 5.66008C16.9001 6.24008 16.9001 6.83008 16.9001 7.43008Z" fill="black"/>
<path d="M43.2002 3.77H44.6702V7.08C44.7702 6.98 44.8602 6.9 44.9502 6.81C45.5402 6.23 46.6002 6.04 47.3502 6.39C48.0602 6.72 48.3502 7.35 48.3802 8.08C48.4202 9.08 48.4002 10.09 48.4102 11.1C48.4102 11.42 48.4102 11.73 48.4102 12.06H46.9202V11.82C46.9202 10.82 46.9202 9.82 46.9202 8.82C46.9202 8.61 46.9002 8.39 46.8602 8.18C46.8002 7.84 46.6602 7.54 46.2902 7.43C45.9002 7.32 45.5202 7.37 45.2102 7.65C44.8702 7.95 44.7402 8.36 44.7102 8.79C44.6702 9.32 44.6802 9.85 44.6702 10.38C44.6702 10.93 44.6702 11.48 44.6702 12.04H43.1902V3.75L43.2002 3.77Z" fill="black"/>
<path d="M59.7901 7.07011C59.8701 6.98011 59.9501 6.89011 60.0401 6.80011C60.6701 6.21011 61.7801 6.04011 62.5501 6.41011C63.1501 6.70011 63.4201 7.23011 63.5301 7.85011C63.5601 8.04011 63.5701 8.23011 63.5701 8.43011C63.5701 9.56011 63.5701 10.6901 63.5701 11.8201V12.0601H62.0901C62.0901 11.9801 62.0901 11.9001 62.0901 11.8201C62.0901 10.7701 62.0901 9.71011 62.0901 8.66011C62.0901 8.51011 62.0701 8.36011 62.0501 8.21011C61.9801 7.84011 61.8301 7.5101 61.4201 7.4201C60.9701 7.3201 60.5701 7.42011 60.2701 7.79011C59.9801 8.15011 59.8701 8.58011 59.8701 9.02011C59.8501 9.94011 59.8701 10.8701 59.8601 11.7901C59.8601 11.8701 59.8601 11.9501 59.8601 12.0501H58.3701V6.36011H59.7601V7.04011L59.8101 7.06011L59.7901 7.07011Z" fill="black"/>
<path d="M25.0002 8.5399C25.0802 7.8199 24.7002 7.3799 24.0102 7.3199C23.3502 7.2699 22.7402 7.4299 22.1802 7.7899C22.1202 7.8299 22.0602 7.8699 21.9302 7.9499C21.9302 7.4999 21.9302 7.1199 21.9302 6.7299C21.9302 6.6899 21.9902 6.6299 22.0402 6.6099C23.0002 6.2199 24.0002 6.0899 25.0102 6.3599C25.8002 6.5699 26.2702 7.1499 26.3302 8.0199C26.3802 8.7999 26.3702 9.5799 26.3902 10.3499C26.4102 10.9099 26.4402 11.4799 26.4602 12.0599H25.1402L25.0702 11.2599C25.0102 11.3299 24.9802 11.3699 24.9502 11.4099C24.2302 12.3599 22.6602 12.4899 21.8002 11.6699C21.0002 10.8999 21.1802 9.5199 22.1502 8.9599C22.6402 8.6799 23.1802 8.5899 23.7402 8.5699C24.1502 8.5599 24.5602 8.5699 24.9902 8.5699L25.0002 8.5399ZM25.0002 9.4399C24.6702 9.4399 24.3502 9.4199 24.0402 9.4399C23.6802 9.4599 23.3102 9.5199 23.0202 9.7699C22.7802 9.9799 22.7002 10.2499 22.7602 10.5499C22.8102 10.8399 23.0302 10.9799 23.3002 11.0499C24.2802 11.3099 25.1302 10.5099 25.0002 9.4399Z" fill="black"/>
<path d="M40.6201 8.54001C40.6301 7.72001 40.2901 7.35001 39.5101 7.31001C38.8801 7.28001 38.3101 7.46001 37.7901 7.79001C37.7301 7.83001 37.6801 7.86001 37.5601 7.94001C37.5601 7.50001 37.5601 7.10001 37.5601 6.70001C37.5601 6.66001 37.6301 6.60001 37.6801 6.58001C38.5901 6.22001 39.5301 6.09001 40.4901 6.30001C41.3401 6.49001 41.8201 7.02001 41.9401 7.89001C41.9701 8.10001 41.9801 8.31001 41.9901 8.53001C42.0201 9.67001 42.0501 10.81 42.0801 11.96C42.0801 11.98 42.0801 12 42.0701 12.05C41.6601 12.05 41.2501 12.05 40.8401 12.05C40.8101 12.05 40.7501 11.97 40.7501 11.92C40.7201 11.7 40.7101 11.48 40.6901 11.25C40.6701 11.27 40.6501 11.28 40.6301 11.29C39.9601 12.31 38.5101 12.43 37.5801 11.79C36.6101 11.12 36.7801 9.57001 37.6301 9.02001C38.1501 8.68001 38.7401 8.58001 39.3401 8.55001C39.7601 8.53001 40.1801 8.55001 40.6101 8.55001L40.6201 8.54001ZM40.6801 9.38001C40.1101 9.43001 39.6101 9.46001 39.1101 9.54001C38.9201 9.57001 38.7101 9.70001 38.5701 9.85001C38.1801 10.24 38.3301 10.85 38.8201 11.02C39.5601 11.27 40.3201 10.9 40.5401 10.15C40.6101 9.93001 40.6201 9.69001 40.6801 9.38001Z" fill="black"/>
<path d="M57.4501 9.68024H53.5401C53.5501 10.5002 54.1801 11.0802 55.0601 11.1002C55.6201 11.1202 56.1501 10.9602 56.6501 10.7202C56.7701 10.6602 56.8801 10.6102 57.0301 10.5302C57.0301 10.9302 57.0301 11.3002 57.0301 11.6702C57.0301 11.7202 56.9301 11.7902 56.8601 11.8202C56.0601 12.2002 55.2201 12.2602 54.3601 12.1302C53.8301 12.0502 53.3601 11.8502 52.9501 11.4802C52.5101 11.0802 52.2701 10.5802 52.1701 10.0102C52.0501 9.39024 52.0701 8.76024 52.2401 8.15024C52.6001 6.83024 53.6301 6.12024 54.9901 6.22024C55.6301 6.27024 56.2401 6.41024 56.6801 6.93024C56.9001 7.19024 57.0801 7.51024 57.2101 7.83024C57.4401 8.41024 57.4801 9.03024 57.4701 9.68024H57.4501ZM53.5301 8.62024H56.0101C56.0101 7.87024 55.5701 7.34024 54.9101 7.31024C54.1101 7.28024 53.5901 7.77024 53.5401 8.62024H53.5301Z" fill="black"/>
<path d="M31.6702 12.0399C31.6702 11.6499 31.6702 11.2599 31.6702 10.8799C31.6702 10.8199 31.7402 10.7499 31.7902 10.6899C32.6502 9.69986 33.5002 8.70986 34.3602 7.71986C34.4102 7.65986 34.4502 7.60986 34.5302 7.50986H31.8102V6.35986H36.3202C36.3202 6.74986 36.3202 7.13986 36.3202 7.52986C36.3202 7.58986 36.2602 7.64986 36.2102 7.69986C35.3402 8.71986 34.4802 9.72986 33.6102 10.7499C33.5802 10.7799 33.5602 10.8099 33.5102 10.8799H36.4102V12.0299H31.6702V12.0399Z" fill="black"/>
<path d="M49.7002 3.77002H51.1702V12.06H49.7002V3.77002V3.77002Z" fill="black"/>
<path d="M30.9601 7.72996C30.7301 7.69996 30.5201 7.66996 30.3201 7.65996C29.8101 7.65996 29.4701 7.87996 29.2901 8.35996C29.1001 8.83996 29.0901 9.33996 29.0801 9.83996C29.0801 10.57 29.0801 11.3 29.0801 12.04H27.6001V6.35996H28.9101V7.53996C29.0701 7.11996 29.3101 6.76996 29.6701 6.49996C30.0201 6.22996 30.4201 6.17996 30.8501 6.23996C30.9001 6.23996 30.9601 6.31996 30.9601 6.36996C30.9601 6.81996 30.9601 7.25996 30.9601 7.71996V7.72996Z" fill="black"/>
<path d="M9.00994 27.1801C9.00994 28.5201 9.00994 29.8701 9.00994 31.2101C9.00994 31.3101 9.00994 31.4201 8.97994 31.5201C8.89994 31.8501 8.61994 32.0401 8.25994 32.0101C7.95994 31.9801 7.70994 31.7301 7.68994 31.4101C7.68994 31.3601 7.68994 31.3101 7.68994 31.2601C7.68994 28.5201 7.68994 25.7801 7.68994 23.0401C7.68994 22.7201 7.90994 22.4401 8.20994 22.3801C8.52994 22.3101 8.83994 22.4701 8.96994 22.7701C9.00994 22.8601 9.01994 22.9701 9.01994 23.0801C9.01994 24.4401 9.01994 25.8101 9.01994 27.1701L9.00994 27.1801Z" fill="black"/>
<path d="M11.4899 27.41C11.4899 28.14 11.4899 28.87 11.4899 29.6C11.4899 30.31 10.7299 30.75 10.1299 30.39C9.83993 30.22 9.67993 29.95 9.67993 29.61C9.67993 28.14 9.67993 26.68 9.67993 25.21C9.67993 24.68 10.0899 24.29 10.5899 24.3C11.0899 24.3 11.4799 24.71 11.4899 25.23C11.4899 25.96 11.4899 26.68 11.4899 27.41Z" fill="black"/>
<path d="M5.66992 28.15C5.66992 27.1 5.66992 26.04 5.66992 24.99C5.66992 24.67 5.87992 24.39 6.17992 24.32C6.48992 24.25 6.79992 24.39 6.93992 24.69C6.97992 24.78 6.99992 24.89 6.99992 24.99C6.99992 27.08 6.99992 29.17 6.99992 31.26C6.99992 31.41 6.96992 31.57 6.89992 31.71C6.77992 31.96 6.49992 32.07 6.20992 32.02C5.94992 31.98 5.73992 31.78 5.68992 31.51C5.66992 31.42 5.66992 31.33 5.66992 31.24C5.66992 30.21 5.66992 29.18 5.66992 28.15V28.15Z" fill="black"/>
<path d="M12.1599 26.69C12.1599 25.66 12.1599 24.62 12.1599 23.59C12.1599 23.1 12.5699 22.77 13.0199 22.9C13.2799 22.98 13.4399 23.16 13.4899 23.43C13.4999 23.49 13.4999 23.56 13.4999 23.62C13.4999 25.67 13.4999 27.72 13.4999 29.77C13.4999 30.21 13.2399 30.51 12.8499 30.51C12.4699 30.51 12.1799 30.25 12.1699 29.86C12.1699 29.64 12.1699 29.41 12.1699 29.19C12.1699 28.36 12.1699 27.52 12.1699 26.69H12.1599Z" fill="black"/>
<path d="M58.9299 30.2H57.8199V30.01C57.8199 28.83 57.8199 27.65 57.8199 26.46C57.8199 26.27 57.7999 26.08 57.7599 25.91C57.5899 25.23 57.0299 24.84 56.2599 24.86C55.2499 24.88 54.5799 25.49 54.5099 26.5C54.4699 27.14 54.4799 27.78 54.4799 28.43C54.4799 29.02 54.4799 29.61 54.4799 30.21H53.3999V21.5H54.4799V24.83C54.5899 24.7 54.6699 24.6 54.7599 24.5C55.2399 23.98 55.8599 23.8 56.5499 23.81C57.4499 23.83 58.1699 24.18 58.6099 24.99C58.7799 25.29 58.8599 25.62 58.8999 25.96C58.8999 26.01 58.9199 26.05 58.9299 26.1V30.19V30.2Z" fill="black"/>
<path d="M30.82 23.9995H32.43V30.1995H30.82V29.5095C30.72 29.6095 30.65 29.6895 30.57 29.7595C29.99 30.2795 29.3 30.4295 28.55 30.3795C27.17 30.2895 26.01 29.0695 25.82 27.6895C25.68 26.6895 25.85 25.7595 26.5 24.9595C27.36 23.8795 28.57 23.5995 29.75 23.9595C30.09 24.0595 30.39 24.2495 30.64 24.5095C30.69 24.5595 30.74 24.6195 30.79 24.6795L30.83 24.6595V23.9995H30.82ZM27.39 27.0895C27.39 28.1295 28.09 28.8495 29.09 28.8495C30.09 28.8495 30.82 28.1295 30.82 27.1195C30.82 26.0895 30.11 25.3495 29.1 25.3495C28.1 25.3495 27.39 26.0695 27.39 27.0895Z" fill="black"/>
<path d="M45.6598 24.9598V23.9898H46.7398V30.1998H45.6698V29.2298H45.6298C45.6298 29.2298 45.5698 29.2898 45.5398 29.3198C44.9398 30.0998 44.1298 30.3898 43.1698 30.3798C41.5498 30.3598 40.0198 28.8398 40.1498 26.8698C40.2498 25.3598 41.3298 24.2498 42.3698 23.9598C43.4098 23.6698 44.3998 23.7798 45.2398 24.5298C45.3098 24.5998 45.3798 24.6698 45.4398 24.7498C45.4998 24.8198 45.5598 24.8998 45.6198 24.9798H45.6598V24.9598ZM45.6598 27.0798C45.6598 25.8098 44.6998 24.8498 43.4398 24.8498C42.1898 24.8498 41.2398 25.8098 41.2398 27.0798C41.2398 28.3398 42.1898 29.2998 43.4398 29.3098C44.6998 29.3098 45.6598 28.3498 45.6598 27.0798Z" fill="black"/>
<path d="M19.4399 28.32C19.6699 27.66 19.8899 27.04 20.0999 26.43C20.3699 25.66 20.6299 24.9 20.8999 24.13C20.9199 24.08 20.9799 24 21.0299 24C21.5799 24 22.1399 24 22.7199 24C22.6499 24.18 22.5999 24.34 22.5399 24.5C21.8399 26.35 21.1299 28.2 20.4299 30.05C20.3799 30.18 20.3199 30.22 20.1799 30.22C19.6699 30.22 19.1599 30.22 18.6499 30.22C18.5599 30.22 18.5099 30.2 18.4799 30.11C17.7199 28.11 16.9599 26.11 16.1999 24.11C16.1899 24.08 16.1799 24.05 16.1699 24C16.3899 24 16.5899 24 16.7899 24C17.1199 24 17.4499 24 17.7799 24C17.9099 24 17.9599 24.05 17.9999 24.16C18.4599 25.49 18.9199 26.81 19.3799 28.14C19.3999 28.19 19.4199 28.24 19.4499 28.33L19.4399 28.32Z" fill="black"/>
<path d="M38.7 28.2099L39.65 28.7599C39.47 28.9899 39.32 29.2299 39.13 29.4199C37.68 30.9199 34.81 30.6999 33.82 28.4799C33.09 26.8399 33.68 24.7199 35.62 24.0199C36.84 23.5799 38.01 23.7499 38.99 24.6599C39.22 24.8699 39.39 25.1599 39.61 25.4299L38.66 25.9799C38.38 25.4499 37.96 25.1099 37.39 24.9599C36.91 24.8299 36.43 24.8599 35.97 25.0399C35.1 25.3799 34.57 26.2599 34.62 27.2499C34.67 28.1699 35.3 28.9699 36.17 29.2099C37.03 29.4499 38.12 29.2099 38.7 28.2099V28.2099Z" fill="black"/>
<path d="M47.6299 28.9199L48.5599 28.3899C48.5599 28.3899 48.5899 28.3999 48.5899 28.4099C48.9999 29.2899 50.1399 29.6399 50.9899 29.1499C51.4599 28.8799 51.4999 28.2299 51.0199 27.9599C50.6699 27.7599 50.2799 27.6399 49.8999 27.4899C49.6399 27.3899 49.3599 27.3299 49.0999 27.2499C48.3699 27.0299 47.9099 26.4799 47.8699 25.8099C47.8299 25.1799 48.0599 24.6699 48.5599 24.2899C49.6099 23.4699 51.3799 23.7299 52.1399 24.8099C52.2099 24.8999 52.2599 24.9999 52.3299 25.1199L51.4199 25.6299C51.4199 25.6299 51.3899 25.5999 51.3799 25.5799C51.0199 24.7599 49.9799 24.7199 49.4299 24.9699C49.1499 25.0999 48.9599 25.3099 48.9699 25.6499C48.9699 25.8899 49.0799 26.0699 49.2799 26.1699C49.5499 26.3099 49.8199 26.4399 50.0999 26.5399C50.4499 26.6599 50.7999 26.7499 51.1599 26.8599C51.8599 27.0699 52.3399 27.4899 52.4299 28.2499C52.5299 29.0799 52.2099 29.6799 51.4899 30.0799C50.5899 30.5699 48.8899 30.5499 48.0199 29.5399C47.9399 29.4399 47.8599 29.3399 47.7899 29.2399C47.7299 29.1499 47.6899 29.0499 47.6199 28.9299L47.6299 28.9199Z" fill="black"/>
<path d="M25.0199 30.2H23.4199V24H25.0199V30.2Z" fill="black"/>
<path d="M23.23 22.2598C23.23 21.7198 23.68 21.2698 24.21 21.2598C24.75 21.2598 25.21 21.7198 25.21 22.2698C25.21 22.8098 24.76 23.2598 24.2 23.2498C23.66 23.2498 23.23 22.8098 23.23 22.2598V22.2598Z" fill="black"/>
</svg>
