<svg width="3865" height="939" viewBox="0 0 3865 939" fill="none" xmlns="http://www.w3.org/2000/svg">
<g clip-path="url(#clip0_1_13)">
<path d="M911.95 798.936H751.739L851.869 139.523H1012.1L911.95 798.936ZM616.959 139.523L464.221 593.072L446.147 495.405L446.164 495.441L392.255 198.895C392.255 198.895 385.737 139.523 316.256 139.523H63.75L60.7871 150.688C60.7871 150.688 138.004 167.904 228.373 226.059L367.564 798.954H534.491L789.385 139.523H616.959V139.523ZM1877.1 798.936H2024.21L1895.95 139.505H1767.16C1707.69 139.505 1693.21 188.647 1693.21 188.647L1454.26 798.936H1621.27L1654.67 700.987H1858.34L1877.1 798.936ZM1700.81 565.679L1784.99 318.91L1832.35 565.679H1700.81ZM1466.79 298.096L1489.65 156.491C1489.65 156.491 1419.1 127.74 1345.56 127.74C1266.05 127.74 1077.25 164.975 1077.25 346.039C1077.25 516.396 1298.84 518.512 1298.84 607.995C1298.84 697.477 1100.08 681.443 1034.48 625.016L1010.66 773.077C1010.66 773.077 1082.2 810.313 1191.5 810.313C1300.83 810.313 1465.77 749.653 1465.77 584.553C1465.77 413.102 1242.18 397.139 1242.18 322.597C1242.2 248.037 1398.23 257.615 1466.79 298.096V298.096Z" fill="#011976"/>
<path d="M446.164 495.423L392.255 198.877C392.255 198.877 385.737 139.505 316.256 139.505H63.75L60.7871 150.67C60.7871 150.67 182.151 177.623 298.561 278.605C409.868 375.126 446.164 495.423 446.164 495.423Z" fill="#E6A540"/>
</g>
<g clip-path="url(#clip1_1_13)">
<path d="M3841.22 926.267V928.681H3843.47C3843.89 928.687 3844.31 928.581 3844.67 928.373C3844.82 928.269 3844.94 928.13 3845.02 927.969C3845.1 927.808 3845.13 927.629 3845.13 927.45C3845.13 927.274 3845.1 927.098 3845.02 926.941C3844.94 926.784 3844.82 926.649 3844.67 926.55C3844.31 926.332 3843.89 926.225 3843.47 926.243H3841.22V926.267ZM3843.49 924.559C3844.46 924.5 3845.41 924.777 3846.19 925.343C3846.51 925.601 3846.76 925.928 3846.92 926.299C3847.09 926.67 3847.16 927.074 3847.14 927.48C3847.16 927.829 3847.1 928.177 3846.97 928.5C3846.83 928.824 3846.64 929.116 3846.38 929.357C3845.78 929.882 3845.02 930.197 3844.22 930.256L3847.24 933.695H3844.92L3842.14 930.28H3841.24V933.695H3839.3V924.565H3843.52L3843.49 924.559ZM3842.89 936.846C3843.91 936.855 3844.92 936.65 3845.85 936.242C3846.75 935.854 3847.57 935.299 3848.26 934.607C3848.96 933.915 3849.52 933.095 3849.9 932.193C3850.69 930.28 3850.69 928.131 3849.9 926.218C3849.51 925.319 3848.96 924.501 3848.26 923.805C3847.57 923.112 3846.75 922.557 3845.85 922.169C3844.91 921.784 3843.9 921.591 3842.89 921.602C3841.85 921.592 3840.83 921.785 3839.87 922.169C3838.95 922.55 3838.11 923.105 3837.4 923.805C3836.33 924.9 3835.61 926.284 3835.33 927.787C3835.04 929.289 3835.2 930.842 3835.79 932.253C3836.16 933.159 3836.71 933.98 3837.4 934.667C3838.11 935.366 3838.95 935.922 3839.87 936.303C3840.82 936.71 3841.85 936.915 3842.89 936.906M3842.89 919.405C3845.54 919.403 3848.09 920.443 3849.98 922.302C3850.89 923.195 3851.62 924.259 3852.12 925.434C3852.63 926.64 3852.9 927.939 3852.9 929.251C3852.9 930.563 3852.63 931.861 3852.12 933.068C3851.61 934.236 3850.88 935.299 3849.98 936.2C3849.05 937.088 3847.98 937.803 3846.8 938.312C3845.56 938.837 3844.23 939.104 3842.89 939.097C3841.53 939.106 3840.18 938.839 3838.93 938.312C3837.74 937.815 3836.65 937.098 3835.72 936.2C3834.82 935.266 3834.11 934.168 3833.62 932.965C3833.1 931.759 3832.84 930.46 3832.84 929.148C3832.84 927.836 3833.1 926.538 3833.62 925.331C3834.12 924.156 3834.84 923.092 3835.75 922.199C3836.67 921.285 3837.76 920.567 3838.96 920.087C3840.21 919.56 3841.56 919.293 3842.92 919.303M2918.81 884.145C2918.81 866.734 2930.21 852.432 2948.86 852.432C2966.67 852.432 2978.69 866.119 2978.69 884.145C2978.69 902.17 2966.67 915.857 2948.86 915.857C2930.21 915.857 2918.81 901.555 2918.81 884.145M2999 884.145V834.6H2977.46V846.669C2970.63 837.75 2960.27 832.156 2946.18 832.156C2918.42 832.156 2896.63 853.929 2896.63 884.169C2896.63 914.409 2918.4 936.182 2946.18 936.182C2960.26 936.182 2970.63 930.582 2977.46 921.668V933.695H2998.98V884.145H2999ZM3726.77 884.145C3726.77 866.734 3738.18 852.432 3756.83 852.432C3774.66 852.432 3786.67 866.119 3786.67 884.145C3786.67 902.17 3774.66 915.857 3756.83 915.857C3738.19 915.857 3726.77 901.555 3726.77 884.145ZM3806.99 884.145V794.831H3785.43V846.669C3778.6 837.75 3768.24 832.156 3754.15 832.156C3726.39 832.156 3704.6 853.929 3704.6 884.169C3704.6 914.409 3726.38 936.182 3754.15 936.182C3768.24 936.182 3778.6 930.582 3785.43 921.668V933.695H3806.99V884.145ZM3266.33 851.412C3280.21 851.412 3289.12 860.114 3291.4 875.437H3240C3242.3 861.134 3250.99 851.412 3266.33 851.412M3266.76 832.101C3237.73 832.101 3217.43 853.223 3217.43 884.114C3217.43 915.61 3238.55 936.127 3268.2 936.127C3283.12 936.127 3296.79 932.404 3308.81 922.248L3298.25 906.286C3289.95 912.924 3279.38 916.647 3269.44 916.647C3255.56 916.647 3242.92 910.221 3239.81 892.388H3313.36C3313.57 889.709 3313.79 887.005 3313.79 884.108C3313.57 853.229 3294.48 832.095 3266.75 832.095M3526.8 884.108C3526.8 866.698 3538.2 852.396 3556.85 852.396C3574.66 852.396 3586.68 866.083 3586.68 884.108C3586.68 902.134 3574.66 915.821 3556.85 915.821C3538.2 915.821 3526.79 901.519 3526.79 884.108M3606.99 884.108V834.6H3585.46V846.669C3578.6 837.75 3568.27 832.156 3554.17 832.156C3526.41 832.156 3504.63 853.929 3504.63 884.169C3504.63 914.409 3526.4 936.182 3554.17 936.182C3568.27 936.182 3578.6 930.582 3585.46 921.668V933.695H3606.99V884.145L3606.99 884.108ZM3405.16 884.108C3405.16 914.155 3426.08 936.121 3458.01 936.121C3472.92 936.121 3482.86 932.802 3493.61 924.312L3483.27 906.901C3475.18 912.713 3466.69 915.821 3457.32 915.821C3440.12 915.609 3427.48 903.178 3427.48 884.108C3427.48 865.039 3440.12 852.613 3457.32 852.396C3466.67 852.396 3475.16 855.504 3483.27 861.315L3493.61 843.905C3482.85 835.414 3472.91 832.095 3458.01 832.095C3426.08 832.095 3405.16 854.056 3405.16 884.108M3682.83 832.095C3670.41 832.095 3662.31 837.907 3656.72 846.609V834.6H3635.37V933.641H3656.94V878.122C3656.94 861.732 3663.98 852.625 3678.06 852.625C3682.67 852.559 3687.25 853.406 3691.53 855.118L3698.17 834.817C3693.4 832.94 3687.18 832.113 3682.82 832.113M3105.49 842.475C3095.13 835.644 3080.85 832.113 3065.1 832.113C3040 832.113 3023.85 844.141 3023.85 863.82C3023.85 879.969 3035.88 889.932 3058.02 893.04L3068.2 894.488C3080.01 896.148 3085.59 899.255 3085.59 904.85C3085.59 912.508 3077.74 916.877 3063.01 916.877C3048.09 916.877 3037.32 912.109 3030.06 906.515L3019.94 923.31C3031.75 932.012 3046.67 936.164 3062.83 936.164C3091.43 936.164 3108.01 922.694 3108.01 903.836C3108.01 886.426 3094.96 877.319 3073.41 874.211L3063.26 872.739C3053.93 871.532 3046.46 869.655 3046.46 863.017C3046.46 855.775 3053.5 851.418 3065.32 851.418C3077.96 851.418 3090.2 856.186 3096.2 859.909L3105.53 842.499L3105.49 842.475ZM3383.41 832.131C3370.98 832.131 3362.89 837.943 3357.32 846.645V834.6H3335.97V933.641H3357.51V878.122C3357.51 861.732 3364.55 852.625 3378.63 852.625C3383.24 852.559 3387.82 853.406 3392.1 855.118L3398.74 834.817C3393.97 832.94 3387.76 832.113 3383.39 832.113M3199.61 834.6H3164.38V804.553H3142.61V834.6H3122.52V854.285H3142.61V899.467C3142.61 922.447 3151.53 936.134 3177.01 936.134C3186.36 936.134 3197.12 933.237 3203.96 928.476L3197.73 910.033C3191.31 913.757 3184.26 915.634 3178.66 915.634C3167.9 915.634 3164.38 908.996 3164.38 899.056V854.303H3199.61V834.6ZM2877.58 933.665V871.508C2877.58 848.099 2862.66 832.349 2838.62 832.138C2825.97 831.926 2812.93 835.861 2803.8 849.759C2796.97 838.776 2786.2 832.138 2771.07 832.138C2760.49 832.138 2750.15 835.245 2742.06 846.844V834.6H2720.5V933.641H2742.22V878.725C2742.22 861.533 2751.76 852.396 2766.49 852.396C2780.79 852.396 2788.02 861.72 2788.02 878.508V933.629H2809.8V878.713C2809.8 861.52 2819.74 852.384 2834.03 852.384C2848.74 852.384 2855.76 861.708 2855.76 878.496V933.617L2877.58 933.665Z" fill="#231F20"/>
<path d="M3853.5 604.207V589.723H3849.73L3845.36 599.663L3841.02 589.723H3837.24V604.207H3839.92V593.296L3844 602.71H3846.77L3850.85 593.272V604.207H3853.51H3853.5ZM3829.57 604.207V592.204H3834.4V589.76H3822.06V592.204H3826.89V604.207H3829.54H3829.57Z" fill="#F79410"/>
<path d="M3424.79 666.322H3098.38V79.7487H3424.8L3424.79 666.322Z" fill="#FF5F00"/>
<path d="M3119.07 373.047C3119.07 254.061 3174.79 148.067 3261.55 79.7606C3195.88 27.9796 3114.65 -0.123649 3031.02 -8.25397e-05C2825 -8.25397e-05 2658 167.016 2658 373.047C2658 579.078 2825 746.095 3031.02 746.095C3114.65 746.219 3195.88 718.116 3261.55 666.334C3174.8 598.039 3119.07 492.039 3119.07 373.047Z" fill="#EB001B"/>
<path d="M3865.15 373.047C3865.15 579.078 3698.15 746.095 3492.13 746.095C3408.49 746.217 3327.25 718.115 3261.57 666.334C3348.35 598.027 3404.06 492.04 3404.06 373.047C3404.06 254.055 3348.35 148.068 3261.57 79.7607C3327.25 27.9813 3408.49 -0.121361 3492.13 2.53781e-05C3698.14 2.53781e-05 3865.14 167.016 3865.14 373.047" fill="#F79E1B"/>
</g>
<defs>
<clipPath id="clip0_1_13">
<rect width="2209" height="899" fill="white" transform="translate(0 40)"/>
</clipPath>
<clipPath id="clip1_1_13">
<rect width="1207" height="939" fill="white" transform="translate(2658)"/>
</clipPath>
</defs>
</svg>
