<svg width="2072" height="1275" viewBox="0 0 2072 1275" fill="none" xmlns="http://www.w3.org/2000/svg">
<path d="M1625.29 637.27H1460.11C1441.76 637.27 1426.97 622.74 1426.97 604.387C1426.97 586.033 1441.76 569.974 1460.11 569.974H1711.45V446.089H1460.11C1372.42 446.089 1301.05 517.718 1301.05 605.152C1301.05 692.585 1372.42 764.214 1460.11 764.214H1623C1641.35 764.214 1656.14 778.744 1656.14 797.097C1656.14 815.451 1641.35 828.961 1623 828.961H1273.78C1244.21 885.55 1215.4 933.983 1156.77 958.199H1625.29C1711.45 956.925 1782.06 884.021 1782.06 797.352C1782.06 710.429 1711.45 638.545 1625.29 637.27Z" fill="#71706F"/>
<path d="M992.357 446.089C852.412 446.089 738.468 560.798 738.468 701.507V706.86V1232.99H865.158V958.199H992.102C1132.05 958.199 1245.48 841.961 1245.48 701.252C1245.74 560.288 1132.3 446.089 992.357 446.089ZM992.357 828.706H865.158V700.997C865.158 629.623 922.002 571.504 992.357 571.504C1062.71 571.504 1120.07 629.623 1120.07 700.997C1120.07 772.371 1062.71 828.706 992.357 828.706Z" fill="#71706F"/>
<path d="M337.498 958.199C217.691 958.199 117.003 872.805 89.7276 761.41C89.7276 761.41 81.8255 724.449 81.8255 700.232C81.8255 676.016 89.2178 638.799 89.2178 638.799C116.748 527.66 217.182 444.814 336.733 444.814C477.443 444.814 592.916 559.013 592.916 699.722V761.665H219.221C241.398 804.745 286.007 828.961 337.498 828.961H673.467L673.977 464.188C673.977 409.892 629.623 365.283 575.072 365.283H98.9043C44.6089 365.283 0 408.363 0 462.913V939.081C0 993.376 44.6089 1039.26 98.9043 1039.26H575.072C623.76 1039.26 664.545 1004.34 672.447 958.454H337.498V958.199Z" fill="#B90466"/>
<path d="M336.988 565.641C285.752 565.641 241.143 596.995 218.966 637.525H455.011C432.834 596.995 388.225 565.641 336.988 565.641Z" fill="#B90466"/>
<path d="M552.641 210.299C552.641 94.0611 456.03 0 336.988 0C219.986 0 124.65 91.257 121.591 204.691C121.591 205.201 121.591 205.711 121.591 206.221V269.183C121.591 276.83 127.709 284.222 135.611 284.222H214.887C222.535 284.222 229.417 276.83 229.417 269.183V210.299C229.417 152.18 277.595 105.022 337.243 105.022C396.892 105.022 445.069 152.18 445.069 210.299V269.183C445.069 276.83 451.187 284.222 459.089 284.222H538.366C546.013 284.222 552.895 276.83 552.895 269.183V210.299H552.641Z" fill="#B90466"/>
<path d="M1134.6 1122.61L1123.12 1187.62C1117.52 1220.5 1095.85 1235.54 1066.79 1235.54C1042.06 1235.54 1022.95 1219.48 1028.55 1187.62L1040.02 1122.61H1057.61L1046.14 1187.62C1042.57 1208.01 1051.75 1219.48 1068.83 1219.48C1086.42 1219.48 1101.71 1209.03 1105.28 1187.62L1116.75 1122.61H1134.6ZM1065.01 1102.22C1065.01 1107.58 1069.08 1110.12 1073.67 1110.12C1079.28 1110.12 1085.4 1106.3 1085.4 1098.65C1085.4 1093.3 1081.83 1090.75 1077.24 1090.75C1071.38 1090.75 1065.01 1094.32 1065.01 1102.22ZM1103.24 1101.97C1103.24 1107.58 1107.58 1110.12 1112.16 1110.12C1117.01 1110.12 1123.63 1106.3 1123.63 1098.91C1123.63 1093.56 1119.81 1090.75 1115.48 1090.75C1109.87 1090.75 1103.24 1094.32 1103.24 1101.97Z" fill="#71706F"/>
<path d="M1177.17 1122.61L1169.26 1167.48C1176.15 1158.3 1189.91 1153.46 1199.34 1153.46C1219.22 1153.46 1232.74 1165.18 1232.74 1186.6C1232.74 1216.93 1211.58 1235.28 1184.56 1235.28C1174.11 1235.28 1165.18 1231.46 1159.58 1221.52L1156.52 1233.24H1140.97L1160.6 1122.61H1177.17ZM1164.93 1198.32C1164.16 1211.32 1172.83 1219.73 1185.07 1219.73C1200.62 1219.73 1215.4 1207.75 1216.42 1189.66C1217.19 1176.4 1208.52 1168.5 1196.54 1168.5C1181.24 1168.5 1165.69 1180.99 1164.93 1198.32Z" fill="#71706F"/>
<path d="M1265.11 1200.62C1264.6 1211.32 1273.01 1220.24 1287.29 1220.24C1295.19 1220.24 1305.64 1217.19 1311.5 1211.83L1320.42 1222.03C1310.74 1230.95 1296.46 1235.54 1284.23 1235.54C1261.54 1235.54 1248.28 1222.03 1248.28 1201.13C1248.28 1173.6 1269.95 1152.95 1297.74 1152.95C1323.23 1152.95 1337.5 1168.24 1328.84 1200.62H1265.11ZM1315.58 1187.11C1316.85 1173.6 1308.95 1167.99 1295.7 1167.99C1283.72 1167.99 1272.76 1173.6 1267.91 1187.11H1315.58Z" fill="#71706F"/>
<path d="M1372.68 1154.73L1371.91 1165.18C1379.56 1155.24 1388.74 1152.95 1397.15 1152.95C1404.8 1152.95 1411.68 1155.75 1415.25 1159.58L1405.31 1173.85C1401.74 1170.54 1398.17 1169.01 1392.31 1169.01C1381.09 1169.01 1369.88 1175.89 1367.33 1190.42L1359.68 1232.74H1343.36L1357.38 1154.48H1372.68V1154.73Z" fill="#71706F"/>
<path d="M1494.53 1154.73L1502.68 1216.68L1532.76 1154.73H1550.86L1509.82 1232.99H1490.7L1482.8 1181.5L1470.31 1206.99L1456.54 1232.99H1437.43L1423.66 1154.73H1442.01L1450.17 1216.68L1480.25 1154.73H1494.53Z" fill="#71706F"/>
<path d="M1572.02 1200.62C1571.51 1211.32 1579.92 1220.24 1594.19 1220.24C1602.1 1220.24 1612.55 1217.19 1618.41 1211.83L1627.33 1222.03C1617.65 1230.95 1603.37 1235.54 1591.14 1235.54C1568.45 1235.54 1555.19 1222.03 1555.19 1201.13C1555.19 1173.6 1576.86 1152.95 1604.65 1152.95C1630.14 1152.95 1644.41 1168.24 1635.74 1200.62H1572.02ZM1622.49 1187.11C1623.76 1173.6 1615.86 1167.99 1602.61 1167.99C1590.63 1167.99 1579.66 1173.6 1574.82 1187.11H1622.49Z" fill="#71706F"/>
<path d="M1680.86 1154.73L1667.1 1232.99H1650.78L1664.55 1154.73H1680.86ZM1666.33 1133.58C1666.33 1139.18 1670.41 1141.99 1675 1141.99C1681.37 1141.99 1687.24 1137.91 1687.24 1130.01C1687.24 1124.65 1683.41 1121.6 1679.08 1121.6C1672.96 1121.85 1666.33 1125.67 1666.33 1133.58Z" fill="#71706F"/>
<path d="M1753.51 1174.11C1748.41 1168.5 1741.79 1166.71 1734.14 1166.71C1723.43 1166.71 1715.53 1170.28 1715.53 1177.17C1715.53 1183.03 1721.65 1185.32 1731.08 1186.09C1745.35 1187.36 1763.71 1192.2 1759.88 1212.34C1757.08 1226.87 1742.55 1235.54 1722.16 1235.54C1709.41 1235.54 1697.18 1232.73 1688.77 1221.01L1699.47 1209.28C1705.33 1217.44 1715.79 1220.75 1724.96 1221.01C1732.86 1221.01 1742.04 1218.21 1743.57 1210.81C1745.1 1203.68 1738.73 1201.13 1727.26 1200.11C1713.75 1198.83 1699.22 1193.99 1699.22 1178.95C1699.22 1159.32 1720.37 1152.44 1736.43 1152.44C1748.67 1152.44 1757.34 1155.24 1764.73 1162.89L1753.51 1174.11Z" fill="#71706F"/>
<path d="M1805.51 1154.73L1798.12 1196.79C1795.57 1210.3 1801.69 1219.48 1815.45 1219.48C1828.46 1219.48 1839.42 1208.77 1841.46 1195.77L1848.59 1154.73H1864.91L1851.14 1232.99H1836.36L1837.38 1221.77C1828.2 1230.44 1819.02 1234.77 1808.06 1234.77C1788.69 1234.77 1777.22 1221.01 1781.55 1197.3L1788.94 1154.99H1805.51V1154.73Z" fill="#71706F"/>
<path d="M1937.05 1232.99L1944.69 1191.18C1946.99 1177.67 1942.4 1168.75 1927.36 1168.75C1914.36 1168.75 1903.4 1179.2 1901.1 1192.2L1893.97 1233.24H1877.65L1891.42 1154.99H1906.46L1905.18 1166.46C1914.36 1158.05 1923.79 1153.97 1933.99 1153.97C1953.1 1153.97 1965.6 1167.22 1961.26 1191.18L1953.61 1233.24H1937.05V1232.99Z" fill="#71706F"/>
<path d="M1992.62 1243.7C1991.6 1254.4 1999.75 1258.74 2013.52 1258.74C2025.75 1258.74 2038.75 1252.11 2041.81 1234.77L2044.11 1221.26C2036.97 1231.21 2023.97 1235.28 2014.03 1235.28C1993.89 1235.28 1979.87 1223.3 1979.87 1201.64C1979.87 1170.79 2002.81 1152.95 2028.81 1152.95C2039.77 1152.95 2049.72 1158.3 2053.28 1167.22L2056.09 1154.73H2071.89L2058.13 1235.28C2053.03 1265.11 2030.85 1274.28 2010.71 1274.28C1986.5 1274.28 1973.24 1262.56 1976.56 1243.7H1992.62ZM1997.2 1198.83C1997.2 1212.34 2005.87 1220.24 2018.62 1220.24C2052.52 1220.24 2061.7 1168.24 2027.79 1168.24C2011.73 1168.24 1997.2 1180.22 1997.2 1198.83Z" fill="#71706F"/>
</svg>
