<?xml version="1.0" encoding="UTF-8"?><svg id="Layer_1" xmlns="http://www.w3.org/2000/svg" viewBox="0 0 85 85"><defs><style>.cls-1{fill:#179bd7;}.cls-2{fill:#253b80;}.cls-3{fill:#222d65;}.cls-4{fill:#e1e1e1;}</style></defs><g><g><path class="cls-2" d="M22.51,48.35h-4.09c-.28,0-.52,.2-.56,.48l-1.66,10.49c-.03,.21,.13,.39,.34,.39h1.95c.28,0,.52-.2,.56-.48l.45-2.83c.04-.28,.28-.48,.56-.48h1.3c2.7,0,4.25-1.3,4.66-3.89,.18-1.13,0-2.02-.52-2.64-.58-.68-1.61-1.04-2.98-1.04Zm.47,3.83c-.22,1.47-1.35,1.47-2.43,1.47h-.62l.43-2.74c.03-.17,.17-.29,.34-.29h.28c.74,0,1.44,0,1.8,.42,.21,.25,.28,.62,.2,1.14Z"/><path class="cls-2" d="M34.74,52.14h-1.96c-.17,0-.31,.12-.34,.29l-.09,.55-.14-.2c-.42-.62-1.37-.82-2.31-.82-2.17,0-4.02,1.64-4.38,3.94-.19,1.15,.08,2.25,.73,3.01,.6,.7,1.45,1,2.47,1,1.74,0,2.71-1.12,2.71-1.12l-.09,.54c-.03,.21,.13,.39,.34,.39h1.77c.28,0,.52-.2,.56-.48l1.06-6.71c.03-.21-.13-.39-.34-.39Zm-2.73,3.81c-.19,1.12-1.08,1.87-2.21,1.87-.57,0-1.02-.18-1.32-.53-.29-.34-.4-.83-.31-1.38,.18-1.11,1.08-1.89,2.2-1.89,.56,0,1.01,.18,1.31,.53,.3,.35,.42,.84,.33,1.39Z"/><path class="cls-2" d="M45.18,52.14h-1.97c-.19,0-.36,.09-.47,.25l-2.72,4-1.15-3.84c-.07-.24-.29-.41-.55-.41h-1.94c-.24,0-.4,.23-.32,.45l2.17,6.37-2.04,2.88c-.16,.23,0,.54,.28,.54h1.97c.19,0,.36-.09,.47-.24l6.55-9.45c.16-.23,0-.54-.28-.54Z"/><path class="cls-1" d="M51.7,48.35h-4.09c-.28,0-.52,.2-.56,.48l-1.66,10.49c-.03,.21,.13,.39,.34,.39h2.1c.2,0,.36-.14,.39-.34l.47-2.97c.04-.28,.28-.48,.56-.48h1.29c2.7,0,4.25-1.3,4.66-3.89,.18-1.13,0-2.02-.52-2.64-.58-.68-1.61-1.04-2.98-1.04Zm.47,3.83c-.22,1.47-1.35,1.47-2.43,1.47h-.62l.43-2.74c.03-.17,.17-.29,.34-.29h.28c.74,0,1.44,0,1.8,.42,.21,.25,.28,.62,.2,1.14Z"/><path class="cls-1" d="M63.93,52.14h-1.96c-.17,0-.31,.12-.34,.29l-.09,.55-.14-.2c-.42-.62-1.37-.82-2.31-.82-2.17,0-4.01,1.64-4.37,3.94-.19,1.15,.08,2.25,.73,3.01,.6,.7,1.45,1,2.47,1,1.74,0,2.71-1.12,2.71-1.12l-.09,.54c-.03,.21,.13,.39,.34,.39h1.76c.28,0,.52-.2,.56-.48l1.06-6.71c.03-.21-.13-.39-.34-.39Zm-2.73,3.81c-.19,1.12-1.08,1.87-2.21,1.87-.57,0-1.02-.18-1.32-.53-.29-.34-.4-.83-.31-1.38,.18-1.11,1.08-1.89,2.2-1.89,.56,0,1.01,.18,1.31,.53,.3,.35,.42,.84,.33,1.39Z"/><path class="cls-1" d="M66.24,48.64l-1.68,10.69c-.03,.21,.13,.39,.34,.39h1.69c.28,0,.52-.2,.56-.48l1.66-10.49c.03-.21-.13-.39-.34-.39h-1.89c-.17,0-.31,.12-.34,.29Z"/></g><g><path class="cls-2" d="M39.33,44.08l.38-2.44-.86-.02h-4.09l2.84-18.04c0-.05,.04-.11,.08-.14,.04-.04,.1-.06,.15-.06h6.9c2.29,0,3.87,.48,4.7,1.42,.39,.44,.63,.9,.75,1.41,.13,.53,.13,1.17,0,1.95v.55l.38,.22c.33,.17,.58,.37,.78,.6,.33,.38,.55,.86,.64,1.43,.09,.58,.06,1.28-.09,2.07-.18,.91-.46,1.7-.85,2.34-.35,.6-.81,1.09-1.34,1.47-.51,.36-1.12,.64-1.81,.82-.67,.17-1.43,.26-2.26,.26h-.54c-.38,0-.76,.14-1.05,.39-.29,.25-.49,.6-.55,.98l-.04,.22-.68,4.31-.03,.16c0,.05-.02,.08-.04,.09-.02,.02-.04,.03-.07,.03h-3.32Z"/><path class="cls-1" d="M50.95,28.27h0c-.02,.13-.04,.27-.07,.4-.91,4.67-4.02,6.29-8,6.29h-2.02c-.49,0-.9,.35-.97,.83h0l-1.04,6.58-.29,1.86c-.05,.31,.19,.6,.51,.6h3.59c.43,0,.79-.31,.85-.73l.04-.18,.68-4.29,.04-.24c.07-.42,.43-.73,.85-.73h.54c3.48,0,6.2-1.41,7-5.5,.33-1.71,.16-3.13-.72-4.14-.27-.3-.6-.55-.98-.76Z"/><path class="cls-3" d="M49.99,27.89c-.14-.04-.28-.08-.43-.11-.15-.03-.3-.06-.46-.09-.55-.09-1.14-.13-1.79-.13h-5.41c-.13,0-.26,.03-.37,.08-.25,.12-.43,.36-.48,.65l-1.15,7.29-.03,.21c.08-.48,.49-.83,.97-.83h2.02c3.98,0,7.09-1.62,8-6.29,.03-.14,.05-.27,.07-.4-.23-.12-.48-.23-.75-.32-.07-.02-.13-.04-.2-.06Z"/><path class="cls-2" d="M41.06,28.3c.04-.29,.23-.53,.48-.64,.11-.05,.24-.08,.37-.08h5.41c.64,0,1.24,.04,1.79,.13,.16,.03,.31,.05,.46,.09,.15,.03,.29,.07,.43,.11,.07,.02,.14,.04,.2,.06,.27,.09,.52,.19,.75,.32,.27-1.73,0-2.9-.94-3.97-1.03-1.17-2.89-1.67-5.26-1.67h-6.9c-.49,0-.9,.35-.97,.83l-2.87,18.22c-.06,.36,.22,.69,.58,.69h4.26l1.07-6.79,1.15-7.29Z"/></g></g></svg>