<svg width="66" height="23" viewBox="0 0 66 23" fill="none" xmlns="http://www.w3.org/2000/svg">
<path d="M14.6101 13.1799L19.98 13.1599L19.7901 14.3899L15.2901 18.6699H19.06L18.85 19.9799H13.3L13.5301 18.6299L17.83 14.4999H14.39L14.6101 13.1799Z" fill="#D13239"/>
<path d="M8.74999 11.08C8.62999 10.96 8.46999 10.86 8.27999 10.79C8.07999 10.71 7.86999 10.66 7.64999 10.62C7.37999 10.58 7.11999 10.55 6.92999 10.54C6.75999 10.53 6.64999 10.53 6.64999 10.53H2.54999L0.98999 19.98H2.44999L3.01999 16.48H5.85999C5.85999 16.48 6.96999 16.53 7.74999 16.12C8.52999 15.71 8.74999 14.77 8.74999 14.77C8.74999 14.77 8.83999 14.42 8.90999 13.99C8.98999 13.52 9.06999 12.96 9.10999 12.66C9.12999 12.53 9.13999 12.44 9.13999 12.44C9.13999 12.44 9.15999 12.34 9.15999 12.19C9.15999 11.98 9.12999 11.67 8.95999 11.37C8.87999 11.27 8.81999 11.17 8.72999 11.09L8.74999 11.08ZM7.61999 12.75C7.61999 12.75 7.48999 13.53 7.31999 14.43C7.24999 14.78 6.98999 14.96 6.68999 15.03C6.18999 15.14 5.64999 15.12 5.64999 15.12H3.27999L3.79999 11.97H6.28999C6.51999 11.98 6.81999 11.99 7.07999 12.02C7.29999 12.05 7.46999 12.1 7.51999 12.16C7.59999 12.25 7.61999 12.37 7.62999 12.47C7.63999 12.61 7.61999 12.74 7.61999 12.75V12.75Z" fill="#D13239"/>
<path d="M27.2499 10.53H28.6599L27.0899 19.98H25.6799L27.2499 10.53Z" fill="#D13239"/>
<path d="M34.76 13.1799L36.12 13.1599L36.59 17.9599L38.66 13.1599H40.33L40.82 17.9899L42.89 13.1599H44.3L41.32 19.9799H39.66L39.18 15.2099L37.08 19.9799H35.46L34.76 13.1799Z" fill="#D13239"/>
<path d="M24.66 13.2301C24.27 13.1001 23.59 13.0801 23 13.0801C22.44 13.0901 22.19 13.1101 21.97 13.1601C21.97 13.1601 20.97 13.3001 20.41 14.0101C19.85 14.7201 19.67 16.2401 19.67 16.2401C19.67 16.2401 19.33 17.9301 19.43 18.4901C19.53 19.0501 19.7 19.5701 20.34 19.8201C20.98 20.0701 21.52 20.0601 21.52 20.0601C21.52 20.0601 22.66 20.1501 23.51 19.9501C24.36 19.7501 24.82 19.1501 24.82 19.1501C24.82 19.1501 25.03 18.8901 25.17 18.5801C25.31 18.2701 25.35 18.0601 25.37 18.0301L25.46 17.6601H24C24 17.6601 23.92 18.6201 23.13 18.7101C22.34 18.8001 21.93 18.7601 21.76 18.7501C21.61 18.7401 20.76 18.7801 20.83 18.0801V18.0401C20.86 17.2401 20.96 17.0301 20.96 17.0301H25.54L25.74 15.8801C25.99 14.5901 25.83 13.6201 24.66 13.2401V13.2301ZM24.35 15.7101H21.21L21.33 15.2101C21.33 15.2101 21.44 14.8201 21.66 14.6601C21.88 14.5001 22.16 14.4601 22.42 14.4401C22.68 14.4201 23.37 14.3601 23.95 14.4801C24.13 14.5101 24.32 14.6201 24.36 14.7801C24.48 15.1401 24.36 15.7001 24.36 15.7001L24.35 15.7101Z" fill="#D13239"/>
<path d="M20.8699 18.04V18.07C20.8599 18.12 20.8699 18.04 20.8699 18.04Z" fill="#D13239"/>
<path d="M33.2999 13.2301C32.9099 13.1001 32.2299 13.0801 31.6399 13.0801C31.0799 13.0901 30.8299 13.1101 30.6099 13.1601C30.6099 13.1601 29.6099 13.3001 29.0499 14.0101C28.4899 14.7101 28.3099 16.2401 28.3099 16.2401C28.3099 16.2401 27.9699 17.9301 28.0699 18.4901C28.1699 19.0501 28.3399 19.5701 28.9799 19.8201C29.6199 20.0701 30.1599 20.0601 30.1599 20.0601C30.1599 20.0601 31.2999 20.1501 32.1499 19.9501C33.0099 19.7401 33.4599 19.1501 33.4599 19.1501C33.4599 19.1501 33.6699 18.8901 33.8099 18.5801C33.9499 18.2701 33.9899 18.0601 34.0099 18.0301L34.0999 17.6601H32.6399C32.6399 17.6601 32.5599 18.6201 31.7699 18.7101C30.9799 18.8001 30.5699 18.7601 30.3999 18.7601C30.2499 18.7501 29.3999 18.7901 29.4699 18.0901V18.0501C29.4999 17.2501 29.5999 17.0401 29.5999 17.0401H34.1799L34.3799 15.8901C34.6299 14.6001 34.4799 13.6101 33.2999 13.2401V13.2301ZM32.9899 15.7101H29.8499L29.9699 15.2101C29.9699 15.2101 30.0799 14.8201 30.2999 14.6601C30.5199 14.5001 30.7999 14.4601 31.0599 14.4401C31.3199 14.4201 32.0099 14.3601 32.5899 14.4801C32.7699 14.5101 32.9599 14.6201 32.9999 14.7801C33.1199 15.1401 32.9999 15.7001 32.9999 15.7001L32.9899 15.7101Z" fill="#D13239"/>
<path d="M45.9099 13.1799L46.8099 18.1599L49.3599 13.1799H50.7899L47.1199 20.3099C47.1199 20.3099 46.4599 21.5999 46.0499 21.9199C45.6399 22.2399 45.3899 22.3999 45.0499 22.4299C44.7099 22.4599 44.5699 22.4799 44.2599 22.4299L43.9099 22.3599L44.1299 21.0899C44.1299 21.0899 44.6999 21.1999 45.0399 21.0599C45.3799 20.9299 45.6499 20.3399 45.6499 20.3399L45.8199 20.0499L44.4899 13.1499L45.9199 13.1699L45.9099 13.1799Z" fill="#D13239"/>
<path d="M51.32 13.8499H52.79L52.88 13.2799C52.88 13.2799 53.04 12.2399 53.39 12.0399C53.5 11.9699 53.68 11.9199 53.9 11.8799C54.29 11.8099 54.78 11.7999 55.18 11.8099C55.8 11.8299 56.03 11.8399 56.65 11.9099C57.28 11.9899 57.12 12.5799 57.12 12.5799L57 13.4799C57 13.4799 56.95 13.8799 56.8 14.1299C56.67 14.3599 56.32 14.5099 56.12 14.5699C55.63 14.7299 53.96 15.1599 53.96 15.1599L52.65 15.5399C52.65 15.5399 51.85 15.7799 51.39 16.2699C50.93 16.7699 50.76 17.3299 50.7 17.6399C50.63 17.9299 50.29 19.9799 50.29 19.9799H57.37L57.61 18.5699H52.02L52.12 18.0099C52.12 18.0099 52.19 17.4099 52.42 17.2199C52.5 17.1499 52.53 17.0799 52.98 16.9199C53.25 16.8199 54.16 16.5799 54.16 16.5799L56.27 16.0099C56.27 16.0099 57.42 15.7199 57.87 15.0799C58.33 14.4499 58.5 13.2499 58.5 13.2499C58.5 13.2499 58.62 12.0799 58.53 11.7099C58.43 11.3399 58.09 10.9099 57.67 10.7099C57.25 10.5299 56.81 10.4099 55.54 10.4299C54.27 10.4499 53.63 10.5099 52.99 10.7399C52.34 10.9799 51.97 11.4099 51.73 12.0199C51.46 12.6199 51.31 13.8599 51.31 13.8599L51.32 13.8499Z" fill="#B3B2B1"/>
<path d="M64.6299 16.48L65.6299 10.54H63.8699L58.3999 16.41L58.1499 17.89H62.9299L62.5799 19.98H64.0499L64.3999 17.89H65.7499L65.9899 16.47H64.6199L64.6299 16.48ZM63.1799 16.48H60.0899L63.8499 12.47L63.1799 16.48Z" fill="#B3B2B1"/>
<path d="M11.8501 11.3099H16.3601C16.3601 11.3099 17.3701 10.4999 18.0801 9.96993C18.8001 9.44993 20.1101 8.61993 20.1101 8.61993L17.5601 7.42993C17.5601 7.42993 15.4001 8.75993 14.4901 9.38993C13.6001 9.97993 11.8501 11.3199 11.8501 11.3199V11.3099Z" fill="#B3B2B1"/>
<path d="M21.5199 7.77987L19.4299 6.36987C19.4299 6.36987 21.3199 5.29988 23.8399 4.28988C26.3499 3.28988 27.6999 2.86987 27.6999 2.86987L28.1199 4.85987C28.1199 4.85987 25.6999 5.66987 24.3199 6.31987C22.8899 6.93987 21.5199 7.76987 21.5199 7.76987V7.77987Z" fill="#B3B2B1"/>
<path d="M29.67 4.42986L29.3 2.38986C29.3 2.38986 31.8801 1.70986 34.2401 1.25986C36.6001 0.819861 39.73 0.609863 39.73 0.609863L38.69 3.75986C38.69 3.75986 35.94 3.37986 33.35 3.73986C31.35 3.97986 29.67 4.41986 29.67 4.41986V4.42986Z" fill="#B3B2B1"/>
<path d="M40.3401 4.03996L42.0801 0.539963C42.0801 0.539963 45.8901 0.459961 49.1901 0.969961C52.4901 1.47996 55.5001 2.25996 55.4301 2.28996L47.0801 6.65996C47.0801 6.65996 45.1301 5.41996 42.7001 4.66996C41.3301 4.26996 40.3401 4.03996 40.3401 4.03996V4.03996Z" fill="#B3B2B1"/>
<path d="M48.5901 7.61985L50.4201 9.01986H65.5001C65.5001 9.01986 65.4701 8.52986 65.0701 7.83986C64.8201 7.40986 64.3701 6.94986 63.8901 6.46986C63.7201 6.29986 63.0201 5.74985 62.5001 5.41985C61.1701 4.54985 60.4201 4.21985 59.0401 3.59985L48.5801 7.61985H48.5901Z" fill="#B3B2B1"/>
<path d="M12.8199 13.1599C12.2599 13.1599 11.7099 13.3899 11.2599 13.6399L11.3399 13.1599H9.83989L8.63989 19.9399H10.1499L10.8099 16.1799C10.9499 15.4199 11.5099 14.4799 12.6299 14.4799H13.4099L13.6499 13.1599H12.8299H12.8199Z" fill="#D13239"/>
</svg>
