<svg width="1812" height="632" viewBox="0 0 1812 632" fill="none" xmlns="http://www.w3.org/2000/svg">
<path d="M2.71582 612.582V548.005H50.3946V558.868H15.6917V573.051H47.9805V583.915H15.6917V601.417H51.6017V612.281H2.71582V612.582Z" fill="#10298E"/>
<path d="M63.3711 548.307H75.7434V559.774H63.3711V548.307ZM63.3711 566.111H75.7434V612.884H63.3711V566.111Z" fill="#10298E"/>
<path d="M131.569 612.582H119.197V588.743C119.197 583.613 119.197 580.294 118.292 579.087C117.688 577.578 116.783 576.371 115.576 575.767C114.369 574.862 112.86 574.56 111.351 574.56C109.239 574.56 107.428 575.164 105.618 576.371C103.807 577.578 102.6 579.087 101.996 580.897C101.393 582.708 101.091 586.329 101.091 591.761V612.884H88.7188V566.111H100.186V573.051C104.411 567.921 109.54 565.205 115.576 565.205C118.292 565.205 120.706 565.809 123.12 566.714C125.232 567.62 127.043 568.827 128.25 570.335C129.457 571.844 130.362 573.655 130.664 575.465C131.268 577.276 131.268 580.294 131.268 583.915V612.884L131.569 612.582Z" fill="#10298E"/>
<path d="M156.917 548.307V572.146C160.84 567.62 165.668 565.205 171.1 565.205C173.816 565.205 176.532 565.809 178.644 566.714C181.058 567.62 182.567 569.128 183.774 570.637C184.981 572.146 185.585 573.957 186.188 576.069C186.49 578.181 186.792 581.199 186.792 585.424V612.884H174.42V588.14C174.42 583.311 174.42 579.992 173.816 578.785C173.213 577.578 172.609 576.371 171.402 575.767C170.195 574.862 168.686 574.56 166.876 574.56C164.763 574.56 162.953 575.164 161.444 576.069C159.935 576.974 158.728 578.483 157.823 580.595C157.219 582.708 156.616 585.725 156.616 589.648V613.186H144.243V548.608H156.616L156.917 548.307Z" fill="#10298E"/>
<path d="M227.229 597.796L239.602 599.908C238.093 604.435 235.377 607.754 232.057 610.168C228.738 612.582 224.513 613.789 219.383 613.789C211.236 613.789 205.2 611.074 201.277 605.944C198.26 601.719 196.751 596.287 196.751 589.95C196.751 582.104 198.863 576.069 202.786 571.844C206.709 567.318 211.839 565.205 218.176 565.205C225.117 565.205 230.549 567.62 234.472 572.146C238.395 576.672 240.507 583.613 240.205 593.269H209.123C209.123 596.891 210.33 599.908 212.141 601.719C213.952 603.831 216.366 604.737 219.383 604.737C221.194 604.737 223.005 604.133 224.212 603.228C225.419 602.021 226.626 600.512 227.229 598.098M227.833 585.725C227.833 582.104 226.927 579.388 225.117 577.578C223.306 575.767 221.194 574.862 218.78 574.862C216.064 574.862 213.952 575.767 212.141 577.88C210.33 579.69 209.425 582.406 209.425 586.027H227.833V585.725Z" fill="#10298E"/>
<path d="M251.068 548.307H263.441V559.774H251.068V548.307ZM251.068 566.111H263.441V612.884H251.068V566.111Z" fill="#10298E"/>
<path d="M298.143 566.111V576.069H289.694V594.778C289.694 598.701 289.694 600.814 289.694 601.417L290.901 602.926L293.013 603.53C293.013 603.53 295.729 603.228 297.841 602.323L299.048 611.979C296.031 613.186 293.013 613.79 289.392 613.79C287.28 613.79 285.167 613.488 283.357 612.583C281.546 611.979 280.339 610.772 279.434 609.565C278.528 608.358 277.925 606.849 277.623 604.737C277.623 603.228 277.321 600.512 277.321 595.985V575.767H271.588V565.809H277.321V556.454L289.694 549.212V565.809H298.143V566.111Z" fill="#10298E"/>
<path d="M307.196 548.307H319.569V612.884H307.196V548.307Z" fill="#10298E"/>
<path d="M332.847 548.307H345.219V559.774H332.847V548.307ZM332.847 566.111H345.219V612.884H332.847V566.111Z" fill="#10298E"/>
<path d="M399.234 579.69L387.164 581.802C386.862 579.388 385.957 577.578 384.448 576.371C382.939 575.164 381.129 574.56 378.714 574.56C375.697 574.56 373.283 575.767 371.472 577.879C369.661 579.992 368.756 583.613 368.756 588.441C368.756 593.873 369.661 597.796 371.472 600.21C373.283 602.624 375.697 603.529 379.016 603.529C381.43 603.529 383.241 602.926 384.75 601.417C386.258 599.908 387.164 597.796 388.069 594.476L400.14 596.589C398.933 602.021 396.518 606.245 392.897 609.263C389.276 611.979 384.448 613.488 378.413 613.488C371.472 613.488 366.04 611.375 362.117 607.151C358.194 602.926 356.082 596.891 356.082 589.347C356.082 581.802 358.194 575.767 362.117 571.241C366.342 567.016 371.774 564.904 378.714 564.904C384.448 564.904 388.974 566.111 392.294 568.525C395.613 570.939 398.027 574.56 399.536 579.69" fill="#10298E"/>
<path d="M421.566 548.307V572.146C425.489 567.62 430.317 565.205 435.749 565.205C438.465 565.205 441.18 565.809 443.293 566.714C445.707 567.62 447.216 569.128 448.423 570.637C449.63 572.146 450.233 573.957 450.837 576.069C451.139 578.181 451.44 581.199 451.44 585.424V612.884H439.068V588.14C439.068 583.311 439.068 579.992 438.465 578.785C437.861 577.578 437.257 576.371 436.05 575.767C434.843 574.862 433.335 574.56 431.524 574.56C429.412 574.56 427.601 575.164 426.092 576.069C424.583 576.974 423.376 578.483 422.471 580.595C421.867 582.708 421.264 585.725 421.264 589.648V613.186H408.892V548.608H421.264L421.566 548.307Z" fill="#10298E"/>
<path d="M491.877 597.796L504.249 599.908C502.74 604.435 500.024 607.754 496.705 610.168C493.385 612.582 489.161 613.789 484.031 613.789C475.883 613.789 469.848 611.074 465.925 605.944C462.907 601.719 461.398 596.287 461.398 589.95C461.398 582.104 463.511 576.069 467.434 571.844C471.357 567.318 476.487 565.205 482.824 565.205C489.764 565.205 495.196 567.62 499.119 572.146C503.042 576.672 505.154 583.613 504.853 593.269H473.771C473.771 596.891 474.978 599.908 476.788 601.719C478.599 603.831 481.013 604.737 484.031 604.737C485.841 604.737 487.652 604.133 488.859 603.228C490.066 602.021 491.273 600.512 491.877 598.098M492.48 585.725C492.48 582.104 491.575 579.388 489.764 577.578C487.954 575.767 485.841 574.862 483.427 574.862C480.711 574.862 478.599 575.767 476.788 577.88C474.978 579.69 474.073 582.406 474.073 586.027H492.48V585.725Z" fill="#10298E"/>
<path d="M527.485 612.582H515.112V565.809H526.579V572.448C528.692 569.43 530.201 567.318 532.011 566.111C533.52 565.205 535.331 564.602 537.443 564.602C540.159 564.602 542.875 565.507 545.591 567.016L541.668 577.879C539.555 576.672 537.745 575.767 535.934 575.767C534.123 575.767 532.615 576.371 531.408 577.276C530.201 578.181 529.295 579.992 528.692 582.406C528.088 584.82 527.786 590.252 527.786 598.098V612.582H527.485Z" fill="#10298E"/>
<path d="M576.975 612.582V548.005H624.653V558.868H589.95V573.051H622.239V583.915H589.95V601.417H625.861V612.281H576.975V612.582Z" fill="#10298E"/>
<path d="M668.409 612.582V605.642C666.598 608.056 664.486 610.168 661.77 611.375C659.054 612.884 656.037 613.488 653.019 613.488C650.001 613.488 646.984 612.884 644.57 611.375C642.155 609.867 640.345 608.056 639.138 605.642C637.931 603.228 637.327 599.606 637.327 595.382V565.809H649.699V587.234C649.699 593.873 649.7 597.796 650.303 599.305C650.907 600.814 651.51 602.021 652.717 602.926C653.924 603.831 655.433 604.133 657.244 604.133C659.356 604.133 661.167 603.53 662.977 602.322C664.788 601.115 665.693 599.606 666.297 598.098C666.9 596.287 667.202 592.062 667.202 585.424V565.809H679.574V612.582H668.107H668.409Z" fill="#10298E"/>
<path d="M704.922 612.582H692.55V565.809H704.017V572.448C706.129 569.43 707.638 567.318 709.449 566.111C710.957 565.205 712.768 564.602 714.88 564.602C717.596 564.602 720.312 565.507 723.028 567.016L719.105 577.879C716.993 576.672 715.182 575.767 713.372 575.767C711.561 575.767 710.052 576.371 708.845 577.276C707.638 578.181 706.733 579.992 706.129 582.406C705.526 584.82 705.224 590.252 705.224 598.098V612.582H704.922Z" fill="#10298E"/>
<path d="M726.046 588.743C726.046 584.518 726.951 580.595 729.064 576.672C731.176 572.749 733.892 570.034 737.513 567.921C741.134 565.809 745.359 564.904 749.885 564.904C756.826 564.904 762.861 567.318 767.388 571.844C771.914 576.371 774.027 582.104 774.027 589.347C774.027 596.589 771.612 602.322 767.086 606.849C762.56 611.375 756.826 613.789 749.885 613.789C745.661 613.789 741.436 612.884 737.513 610.772C733.59 608.961 730.572 605.944 728.762 602.322C726.65 598.701 725.744 594.175 725.744 588.743M738.418 589.347C738.418 593.873 739.625 597.494 741.738 599.908C743.85 602.322 746.566 603.529 749.885 603.529C753.205 603.529 755.921 602.322 758.033 599.908C760.145 597.494 761.352 593.873 761.352 589.045C761.352 584.216 760.145 580.897 758.033 578.483C755.921 576.069 753.205 574.862 749.885 574.862C746.566 574.862 743.85 576.069 741.738 578.483C739.625 580.897 738.418 584.518 738.418 589.045" fill="#10298E"/>
<path d="M783.079 583.009H807.22V595.382H783.079V583.009Z" fill="#10298E"/>
<path d="M809.635 612.582V600.813L843.432 558.868H813.256V548.005H860.331V558.265L825.025 601.719H861.538V612.582H809.031H809.635Z" fill="#10298E"/>
<path d="M879.946 580.294L868.78 578.181C869.987 573.655 872.1 570.335 875.419 568.223C878.437 566.111 882.963 564.904 888.999 564.904C894.43 564.904 898.655 565.507 901.371 566.714C904.087 567.921 905.897 569.732 907.104 571.542C908.312 573.655 908.613 577.276 908.613 582.708V597.192C908.613 601.417 908.613 604.435 909.217 606.245C909.519 608.056 910.424 610.168 911.329 612.582H899.259C899.259 612.582 898.655 610.47 898.052 608.961V607.452C895.637 609.565 893.223 611.074 890.809 611.979C888.395 612.884 885.981 613.488 883.265 613.488C878.437 613.488 874.816 612.281 871.798 609.565C869.082 606.849 867.573 603.529 867.573 599.607C867.573 596.891 868.177 594.476 869.384 592.666C870.591 590.554 872.402 589.045 874.816 587.838C877.23 586.631 880.247 585.725 884.774 584.82C890.507 583.613 894.43 582.708 896.844 581.802V580.595C896.844 578.181 896.241 576.672 895.034 575.465C893.827 574.56 891.714 573.956 888.395 573.956C886.283 573.956 884.472 574.258 883.265 575.164C882.058 576.069 881.153 577.578 880.247 579.69M896.844 589.648C895.336 590.252 892.62 590.855 889.3 591.459C885.981 592.062 883.567 592.968 882.661 593.571C881.153 594.778 880.247 596.287 880.247 597.796C880.247 599.305 880.851 601.115 882.058 602.322C883.265 603.529 885.076 604.133 886.886 604.133C888.999 604.133 891.111 603.529 893.223 602.021C894.732 600.814 895.637 599.607 896.241 597.796C896.543 596.589 896.844 594.778 896.844 591.761V589.347V589.648Z" fill="#10298E"/>
<path d="M933.66 548.307V572.146C937.583 567.62 942.412 565.205 947.843 565.205C950.559 565.205 953.275 565.809 955.387 566.714C957.802 567.62 959.31 569.128 960.518 570.637C961.725 572.146 962.328 573.957 962.932 576.069C963.233 578.181 963.535 581.199 963.535 585.424V612.884H951.163V588.14C951.163 583.311 951.163 579.992 950.559 578.785C949.956 577.578 949.352 576.371 948.145 575.767C946.938 574.862 945.429 574.56 943.619 574.56C941.506 574.56 939.696 575.164 938.187 576.069C936.678 576.974 935.471 578.483 934.566 580.595C933.962 582.708 933.359 585.725 933.359 589.648V613.186H920.986V548.608H933.359L933.66 548.307Z" fill="#10298E"/>
<path d="M977.114 548.307H989.487V612.884H977.114V548.307Z" fill="#10298E"/>
<path d="M1033.54 612.582V605.642C1031.73 608.056 1029.62 610.168 1026.91 611.375C1024.19 612.884 1021.17 613.488 1018.15 613.488C1015.14 613.488 1012.12 612.884 1009.71 611.375C1007.29 609.867 1005.48 608.056 1004.27 605.642C1003.07 603.228 1002.46 599.606 1002.46 595.382V565.809H1014.84V587.234C1014.84 593.873 1014.84 597.796 1015.44 599.305C1015.74 600.814 1016.65 602.021 1017.85 602.926C1019.06 603.831 1020.57 604.133 1022.38 604.133C1024.49 604.133 1026.3 603.53 1028.11 602.322C1029.92 601.115 1030.83 599.606 1031.43 598.098C1032.04 596.287 1032.34 592.062 1032.34 585.424V565.809H1044.71V612.582H1033.24H1033.54Z" fill="#10298E"/>
<path d="M1100.84 612.582H1088.47V588.743C1088.47 583.613 1088.47 580.294 1087.56 579.087C1086.96 577.578 1086.05 576.371 1084.84 575.767C1083.64 574.862 1082.13 574.56 1080.62 574.56C1078.51 574.56 1076.7 575.164 1074.89 576.371C1073.08 577.578 1072.17 579.087 1071.26 580.897C1070.66 582.708 1070.36 586.329 1070.36 591.761V612.884H1057.99V566.111H1069.45V573.051C1073.68 567.921 1078.51 565.205 1084.84 565.205C1087.56 565.205 1089.97 565.809 1092.39 566.714C1094.5 567.62 1096.31 568.827 1097.52 570.335C1098.73 571.844 1099.33 573.655 1099.93 575.465C1100.23 577.276 1100.54 580.294 1100.54 583.915V612.884L1100.84 612.582Z" fill="#10298E"/>
<path d="M1112.91 615.902L1127.09 617.712C1127.09 619.221 1128 620.428 1128.6 621.032C1129.81 621.937 1131.62 622.239 1134.03 622.239C1137.35 622.239 1139.77 621.635 1141.27 620.73C1142.48 620.126 1143.08 618.919 1143.69 617.712C1143.99 616.807 1144.29 614.695 1144.29 611.979V605.038C1140.67 610.168 1135.84 612.582 1130.41 612.582C1124.07 612.582 1119.25 609.866 1115.62 604.736C1112.91 600.512 1111.4 595.382 1111.4 589.045C1111.4 581.199 1113.21 575.164 1117.13 571.241C1120.75 567.016 1125.58 564.904 1131.32 564.904C1137.05 564.904 1141.88 567.318 1145.5 572.448V565.809H1156.97V607.754C1156.97 613.186 1156.66 617.411 1155.76 620.127C1154.85 622.842 1153.65 624.955 1151.84 626.464C1150.33 627.972 1147.91 629.179 1145.2 630.085C1142.48 630.99 1138.86 631.292 1134.94 631.292C1127.09 631.292 1121.36 630.085 1118.04 627.369C1114.72 624.653 1113.21 621.334 1113.21 617.109V615.6L1112.91 615.902ZM1124.07 588.441C1124.07 593.269 1124.98 596.891 1127.09 599.305C1128.9 601.719 1131.32 602.624 1134.33 602.624C1137.35 602.624 1139.77 601.417 1141.88 599.003C1143.99 596.589 1144.9 593.269 1144.9 588.441C1144.9 583.613 1143.99 579.992 1141.88 577.578C1139.77 575.164 1137.35 573.956 1134.33 573.956C1131.32 573.956 1128.9 575.164 1127.09 577.276C1125.28 579.69 1124.07 583.009 1124.07 587.838" fill="#10298E"/>
<path d="M1165.11 599.305L1177.49 597.494C1178.09 599.908 1178.99 601.719 1180.81 602.926C1182.62 604.133 1184.73 604.736 1187.44 604.736C1190.76 604.736 1193.18 604.133 1194.69 602.926C1195.89 602.021 1196.2 601.115 1196.2 599.607L1195.29 597.192C1195.29 597.192 1193.18 595.985 1191.07 595.684C1181.11 593.571 1174.77 591.459 1172.05 589.648C1168.43 587.234 1166.62 583.613 1166.62 579.086C1166.62 575.164 1168.13 571.542 1171.45 568.826C1174.77 566.111 1179.6 564.602 1186.24 564.602C1192.88 564.602 1197.4 565.507 1200.42 567.619C1203.44 569.732 1205.55 572.749 1206.76 576.974L1194.99 579.086C1194.38 577.276 1193.48 575.767 1192.27 574.862C1190.76 573.957 1188.95 573.353 1186.24 573.353C1182.92 573.353 1180.81 573.957 1179.3 574.862L1177.79 577.276L1178.99 579.388C1178.99 579.388 1183.82 581.501 1190.46 583.009C1197.1 584.518 1201.63 586.329 1204.34 588.441C1207.06 590.553 1208.27 593.571 1208.27 597.494C1208.27 601.719 1206.46 605.34 1202.83 608.659C1199.21 611.677 1194.08 613.186 1186.84 613.186C1180.5 613.186 1175.37 611.979 1171.75 609.263C1168.13 606.547 1165.72 603.228 1164.51 598.701" fill="#10298E"/>
<path d="M1233.01 612.582L1214.3 565.809H1227.28L1236.03 589.648L1238.44 597.494C1239.05 595.382 1239.65 594.175 1239.65 593.571C1239.95 592.364 1240.55 590.855 1240.86 589.648L1249.61 565.809H1262.28L1243.87 612.582H1232.71H1233.01Z" fill="#10298E"/>
<path d="M1298.19 597.796L1310.56 599.908C1309.06 604.435 1306.34 607.754 1303.02 610.168C1299.7 612.582 1295.48 613.789 1290.35 613.789C1282.2 613.789 1276.16 611.074 1272.24 605.944C1269.22 601.719 1267.71 596.287 1267.71 589.95C1267.71 582.104 1269.83 576.069 1273.75 571.844C1277.67 567.318 1282.8 565.205 1289.14 565.205C1296.08 565.205 1301.51 567.62 1305.43 572.146C1309.36 576.672 1311.47 583.613 1311.17 593.269H1280.09C1280.09 596.891 1281.29 599.908 1283.1 601.719C1284.91 603.831 1287.33 604.737 1290.35 604.737C1292.16 604.737 1293.97 604.133 1295.17 603.228C1296.38 602.021 1297.59 600.512 1298.19 598.098M1298.8 585.725C1298.8 582.104 1297.89 579.388 1296.08 577.578C1294.27 575.767 1292.16 574.862 1289.74 574.862C1287.03 574.862 1284.91 575.767 1283.1 577.88C1281.29 579.69 1280.39 582.406 1280.39 586.027H1298.8V585.725Z" fill="#10298E"/>
<path d="M1333.5 612.582H1321.13V565.809H1332.59V572.448C1334.71 569.43 1336.21 567.318 1338.02 566.111C1339.53 565.205 1341.34 564.602 1343.46 564.602C1346.17 564.602 1348.89 565.507 1351.6 567.016L1347.68 577.879C1345.57 576.672 1343.76 575.767 1341.95 575.767C1340.14 575.767 1338.63 576.371 1337.42 577.276C1336.21 578.181 1335.31 579.992 1334.71 582.406C1334.1 584.82 1333.8 590.252 1333.8 598.098V612.582H1333.5Z" fill="#10298E"/>
<path d="M1357.04 612.582V548.005H1369.41V582.104L1383.89 565.809H1398.98L1382.99 583.009L1400.19 612.582H1386.91L1375.14 591.459L1369.41 597.494V612.582H1357.04Z" fill="#10298E"/>
<path d="M1435.19 597.796L1447.57 599.908C1446.06 604.435 1443.34 607.754 1440.02 610.168C1436.7 612.582 1432.48 613.789 1427.35 613.789C1419.2 613.789 1413.16 611.074 1409.24 605.944C1406.22 601.719 1404.71 596.287 1404.71 589.95C1404.71 582.104 1406.83 576.069 1410.75 571.844C1414.67 567.318 1419.8 565.205 1426.14 565.205C1433.08 565.205 1438.51 567.62 1442.44 572.146C1446.36 576.672 1448.47 583.613 1448.17 593.269H1417.09C1417.09 596.891 1418.29 599.908 1420.1 601.719C1421.92 603.831 1424.33 604.737 1427.35 604.737C1429.16 604.737 1430.97 604.133 1432.18 603.228C1433.38 602.021 1434.59 600.512 1435.19 598.098M1435.8 585.725C1435.8 582.104 1434.89 579.388 1433.08 577.578C1431.27 575.767 1429.16 574.862 1426.74 574.862C1424.03 574.862 1421.92 575.767 1420.1 577.88C1418.29 579.69 1417.39 582.406 1417.39 586.027H1435.8V585.725Z" fill="#10298E"/>
<path d="M1471.1 548.307V572.146C1475.03 567.62 1479.85 565.205 1485.29 565.205C1488 565.205 1490.72 565.809 1492.83 566.714C1495.24 567.62 1496.75 569.128 1497.96 570.637C1499.17 572.146 1499.77 573.957 1500.37 576.069C1500.68 578.181 1500.98 581.199 1500.98 585.424V612.884H1488.61V588.14C1488.61 583.311 1488.61 579.992 1488 578.785C1487.4 577.578 1486.79 576.371 1485.59 575.767C1484.38 574.862 1482.87 574.56 1481.06 574.56C1478.95 574.56 1477.14 575.164 1475.63 576.069C1474.12 576.974 1472.91 578.483 1472.01 580.595C1471.4 582.708 1470.8 585.725 1470.8 589.648V613.186H1458.43V548.608H1470.8L1471.1 548.307Z" fill="#10298E"/>
<path d="M1526.33 612.582H1513.95V565.809H1525.42V572.448C1527.53 569.43 1529.04 567.318 1530.85 566.111C1532.36 565.205 1534.17 564.602 1536.28 564.602C1539 564.602 1541.72 565.507 1544.43 567.016L1540.51 577.879C1538.4 576.672 1536.59 575.767 1534.77 575.767C1532.96 575.767 1531.46 576.371 1530.25 577.276C1529.04 578.181 1528.14 579.992 1527.53 582.406C1526.93 584.82 1526.63 590.252 1526.63 598.098V612.582H1526.33Z" fill="#10298E"/>
<path d="M1545.64 599.305L1558.01 597.494C1558.61 599.908 1559.52 601.719 1561.33 602.926C1563.14 604.133 1565.25 604.736 1567.97 604.736C1571.29 604.736 1573.7 604.133 1575.21 602.926C1576.42 602.021 1576.72 601.115 1576.72 599.607L1575.82 597.192C1575.82 597.192 1573.7 595.985 1571.59 595.684C1561.63 593.571 1555.3 591.459 1552.58 589.648C1548.96 587.234 1547.15 583.613 1547.15 579.086C1547.15 575.164 1548.66 571.542 1551.98 568.826C1555.3 566.111 1560.12 564.602 1566.76 564.602C1573.4 564.602 1577.93 565.507 1580.95 567.619C1583.96 569.732 1586.08 572.749 1587.28 576.974L1575.51 579.086C1574.91 577.276 1574 575.767 1572.8 574.862C1571.29 573.957 1569.48 573.353 1566.76 573.353C1563.44 573.353 1561.33 573.957 1559.82 574.862L1558.31 577.276L1559.52 579.388C1559.52 579.388 1564.35 581.501 1570.99 583.009C1577.63 584.518 1582.15 586.329 1584.87 588.441C1587.58 590.553 1588.79 593.571 1588.79 597.494C1588.79 601.719 1586.98 605.34 1583.36 608.659C1579.74 611.677 1574.61 613.186 1567.37 613.186C1561.03 613.186 1555.9 611.979 1552.28 609.263C1548.66 606.547 1546.24 603.228 1545.04 598.701" fill="#10298E"/>
<path d="M1612.63 612.582H1600.26V565.809H1611.72V572.448C1613.84 569.43 1615.35 567.318 1617.16 566.111C1618.67 565.205 1620.48 564.602 1622.59 564.602C1625.3 564.602 1628.02 565.507 1630.74 567.016L1626.81 577.879C1624.7 576.672 1622.89 575.767 1621.08 575.767C1619.27 575.767 1617.76 576.371 1616.55 577.276C1615.35 578.181 1614.44 579.992 1613.84 582.406C1613.23 584.82 1612.93 590.252 1612.93 598.098V612.582H1612.63Z" fill="#10298E"/>
<path d="M1645.82 580.294L1634.66 578.181C1635.87 573.655 1637.98 570.335 1641.3 568.223C1644.32 566.111 1648.84 564.904 1654.88 564.904C1660.31 564.904 1664.53 565.507 1667.25 566.714C1669.97 567.921 1671.78 569.732 1672.98 571.542C1674.19 573.655 1674.49 577.276 1674.49 582.708V597.192C1674.49 601.417 1674.49 604.435 1675.1 606.245C1675.4 608.056 1676.3 610.168 1677.21 612.582H1665.14C1665.14 612.582 1664.53 610.47 1663.93 608.961V607.452C1661.52 609.565 1659.1 611.074 1656.69 611.979C1654.27 612.884 1651.86 613.488 1649.14 613.488C1644.32 613.488 1640.69 612.281 1637.68 609.565C1634.96 606.849 1633.45 603.529 1633.45 599.607C1633.45 596.891 1634.06 594.476 1635.26 592.666C1636.47 590.554 1638.28 589.045 1640.69 587.838C1642.81 586.631 1646.13 585.725 1650.65 584.82C1656.39 583.613 1660.31 582.708 1662.72 581.802V580.595C1662.72 578.181 1662.12 576.672 1660.91 575.465C1659.71 574.56 1657.59 573.956 1654.27 573.956C1652.16 573.956 1650.35 574.258 1649.14 575.164C1647.94 576.069 1647.03 577.578 1646.13 579.69M1662.72 589.648C1661.21 590.252 1658.5 590.855 1655.18 591.459C1651.86 592.062 1649.45 592.968 1648.54 593.571C1647.03 594.778 1646.13 596.287 1646.13 597.796C1646.13 599.305 1646.73 601.115 1647.94 602.322C1649.14 603.529 1650.95 604.133 1652.77 604.133C1654.88 604.133 1656.99 603.529 1659.1 602.021C1660.61 600.814 1661.52 599.607 1662.12 597.796C1662.42 596.589 1662.72 594.778 1662.72 591.761V589.347V589.648Z" fill="#10298E"/>
<path d="M1717.95 612.582V605.642C1716.14 608.056 1714.02 610.168 1711.31 611.375C1708.59 612.884 1705.57 613.488 1702.56 613.488C1699.54 613.488 1696.52 612.884 1694.11 611.375C1691.69 609.867 1689.88 608.056 1688.68 605.642C1687.47 603.228 1686.86 599.606 1686.86 595.382V565.809H1699.24V587.234C1699.24 593.873 1699.24 597.796 1699.84 599.305C1700.44 600.814 1701.05 602.021 1702.25 602.926C1703.46 603.831 1704.97 604.133 1706.78 604.133C1708.89 604.133 1710.7 603.53 1712.51 602.322C1714.33 601.115 1715.23 599.606 1715.83 598.098C1716.44 596.287 1716.74 592.062 1716.74 585.424V565.809H1729.11V612.582H1717.64H1717.95Z" fill="#10298E"/>
<path d="M1741.79 566.111H1753.25V572.448C1757.48 567.619 1762.31 564.904 1767.74 564.904C1770.76 564.904 1773.47 565.507 1775.58 566.714C1777.7 567.921 1779.51 569.732 1781.02 572.448C1783.13 570.034 1785.24 568.223 1787.65 566.714C1790.07 565.507 1792.48 564.904 1795.2 564.904C1798.52 564.904 1801.54 565.507 1803.95 567.016C1806.36 568.525 1808.17 570.335 1809.38 573.051C1810.29 575.164 1810.59 578.181 1810.59 582.708V612.582H1798.22V586.027C1798.22 581.501 1797.91 578.483 1797.01 576.974C1795.8 575.164 1793.99 574.258 1791.88 574.258C1790.07 574.258 1788.56 574.862 1787.05 575.767C1785.54 576.672 1784.33 578.483 1783.73 580.294C1783.13 582.406 1782.83 585.424 1782.83 589.95V612.281H1770.45V586.631C1770.45 582.104 1770.45 579.087 1769.85 577.879C1769.55 576.672 1768.64 575.465 1767.74 574.862C1766.83 574.258 1765.63 573.956 1764.12 573.956C1762.31 573.956 1760.5 574.56 1758.99 575.465C1757.48 576.371 1756.27 577.879 1755.67 579.992C1755.06 581.802 1754.76 585.122 1754.76 589.648V612.281H1742.39V565.507L1741.79 566.111Z" fill="#10298E"/>
<path d="M402.856 158.125H278.831C278.831 137.906 276.416 124.025 271.588 117.085C264.346 106.825 243.826 101.695 210.632 101.695C177.438 101.695 156.918 104.712 146.356 110.446C135.794 116.481 130.664 129.457 130.664 149.072C130.664 167.178 135.191 178.946 144.545 184.68C151.184 188.603 159.935 191.017 171.101 191.922L196.147 193.733C249.559 197.354 283.055 199.768 296.333 201.277C338.58 205.502 369.36 216.667 388.371 235.075C403.459 249.258 412.211 267.967 415.228 290.901C417.039 304.782 417.642 320.172 417.642 337.373C417.642 377.206 413.719 406.477 406.175 424.885C392.294 458.682 361.514 480.108 313.232 489.161C293.014 493.083 262.234 494.894 220.59 494.894C151.184 494.894 102.902 490.669 75.4412 482.522C41.9453 472.262 19.9165 451.742 9.05295 420.66C3.01765 403.459 0 374.49 0 334.355H124.025C124.025 338.882 124.025 342.201 124.025 344.615C124.025 366.041 130.061 379.922 142.433 385.957C150.882 390.182 161.142 392.294 173.515 392.596H219.081C242.317 392.596 257.104 391.389 263.441 388.975C274.908 384.448 282.452 377.206 285.771 367.248C287.582 361.212 288.487 353.065 288.487 343.408C288.487 321.681 280.641 308.403 264.648 303.575C258.612 301.765 231.152 299.049 181.662 295.729C142.131 293.014 114.671 290.298 99.2806 287.582C58.8441 280.038 31.6853 264.346 18.1059 240.808C6.33707 220.59 0.301772 190.112 0.301772 149.373C0.301772 118.292 3.6212 93.5469 9.95826 74.8375C16.2953 56.1281 26.5553 41.9452 41.04 32.2887C61.8618 17.5022 88.7188 8.75109 121.309 6.03521C148.468 3.62109 178.343 2.41406 211.537 2.41406C263.441 2.41406 300.558 5.43169 322.586 11.467C376.602 25.9517 403.459 66.3881 403.459 133.078C403.459 138.51 403.158 146.658 402.252 157.521" fill="#10298E"/>
<path d="M947.541 494.894V0H1195.59C1229.69 0 1255.64 2.71596 1273.45 8.44949C1314.19 21.1236 1341.65 47.3771 1355.53 86.9083C1362.77 107.73 1366.39 138.812 1366.39 180.757C1366.39 230.85 1362.47 267.062 1354.32 289.091C1338.33 332.545 1305.74 357.591 1256.25 363.928C1250.51 364.834 1225.77 365.739 1182.01 366.342L1159.98 366.946H1080.62V494.592H947.541V494.894ZM1080.62 252.275H1163.6C1189.86 251.37 1205.85 249.258 1211.59 246.24C1219.43 242.015 1224.86 233.264 1227.28 220.288C1229.09 211.537 1229.69 198.863 1229.69 181.662C1229.69 160.841 1227.88 145.149 1224.56 135.191C1219.73 121.008 1208.27 112.257 1190.16 109.239C1186.54 108.635 1178.09 108.635 1164.21 108.635H1080.02V252.577L1080.62 252.275Z" fill="#10298E"/>
<path d="M1650.96 409.495H1472.91L1449.07 494.894H1311.17L1459.94 0H1660.91L1811.49 494.894H1676.61L1651.26 409.495H1650.96ZM1624.4 313.232L1561.93 98.6771L1501.28 313.232H1624.1H1624.4Z" fill="#10298E"/>
<path d="M763.766 70.0093C818.688 70.0093 867.573 95.3576 899.862 134.889L928.53 73.3287C883.567 30.7799 822.61 4.82812 755.015 4.82812C650.001 4.82812 560.377 68.1987 523.562 157.823H467.735L434.541 228.738H506.663C506.059 235.376 505.758 242.015 505.758 248.654C505.758 256.802 506.059 264.949 506.965 272.795H470.753L437.86 343.71H525.372C563.395 431.222 651.812 492.48 755.317 492.48C807.22 492.48 855.805 476.788 895.638 450.233V363.325C863.349 400.14 816.273 423.074 763.766 423.074C702.508 423.074 648.492 391.389 616.807 343.408H800.28L833.474 272.494H589.95C588.743 264.044 588.139 255.293 588.139 246.24C588.139 240.205 588.441 234.169 589.045 228.436H853.994L886.886 157.521H611.677C642.155 105.014 698.887 69.7076 763.766 69.7076" fill="#FFBE00"/>
<path d="M763.766 72.1217C815.972 72.1217 865.159 95.6594 898.353 136.398L900.466 139.113L901.975 136.096L930.642 74.5359L931.246 73.0271L930.039 71.82C882.963 27.1588 820.8 2.71582 755.317 2.71582C704.017 2.71582 654.829 17.8041 612.884 45.8682C571.844 73.6305 540.461 111.955 521.751 156.918L523.562 155.711H466.226L465.623 156.918L432.73 227.832L431.222 230.85H506.663L504.551 228.436C503.947 235.678 503.645 242.317 503.645 248.352C503.645 256.198 503.947 264.346 504.852 272.494L506.965 270.079H469.546L468.942 271.286L435.748 342.201L434.239 345.219H525.07L523.26 344.012C562.791 435.145 653.622 493.989 755.015 493.989C805.712 493.989 854.597 479.202 896.543 451.44L897.448 450.836V357.289L893.827 361.514C860.935 398.933 813.256 420.66 763.465 420.66C704.922 420.66 650.605 391.389 618.316 342.201L616.505 345.521H801.487L802.091 344.313L835.285 273.399L836.793 270.381H589.95L592.062 272.192C590.855 263.742 590.252 254.991 590.252 246.24C590.252 240.506 590.252 234.471 591.157 228.738L589.045 230.548H855.503L856.106 229.341L888.999 158.426L890.508 155.409H611.979L613.789 158.728C644.871 105.316 702.206 71.82 763.766 71.82M611.677 159.633H886.886L885.076 156.616L852.183 227.531L853.994 226.323H586.932V228.134C586.027 234.169 585.725 240.205 585.725 246.24C585.725 254.991 586.329 264.044 587.536 272.795V274.606H833.172L831.362 271.588L798.469 342.503L800.28 341.296H612.884L614.996 344.615C648.191 395.01 703.715 425.186 763.465 425.186C814.463 425.186 863.047 403.158 896.845 364.532L893.223 363.023V449.931L894.129 448.121C853.089 475.581 804.806 490.066 755.015 490.066C655.433 490.066 566.111 432.127 527.183 342.503L526.579 341.296H437.559L439.369 344.313L472.262 273.399L470.451 274.606H509.077V272.192C508.172 264.044 507.568 256.198 507.568 248.352C507.568 242.317 507.568 235.98 508.473 228.738V226.323H434.239L436.05 229.341L469.244 158.426L467.433 159.633H524.769L525.372 158.426C543.478 114.067 574.56 76.3464 614.695 49.1876C656.036 21.4253 704.319 6.63879 754.713 6.63879C819.291 6.63879 880.247 30.78 926.719 74.5359L926.116 72.1217L897.448 133.682H901.069C866.97 91.4346 816.877 67.5953 763.163 67.5953C700.094 67.5953 641.25 101.695 609.263 156.616L607.452 159.935H611.073L611.677 159.633Z" fill="#10298E"/>
</svg>
