<svg width="65" height="15" viewBox="0 0 65 15" fill="none" xmlns="http://www.w3.org/2000/svg">
<path d="M21.77 11.48V2.77996H18.65V0.709961H27.14V2.77996H24.02V11.48H21.77V11.48Z" fill="#0EE06E"/>
<path d="M26.79 11.4799V3.66992H28.86V4.90992C29.35 3.85992 29.98 3.66992 30.66 3.66992H31.46V5.75992H30.78C29.81 5.75992 28.94 6.31992 28.94 8.02992V11.4799H26.8H26.79Z" fill="#0EE06E"/>
<path d="M32.42 8.61992V3.66992H34.56V8.13992C34.56 9.04992 35 9.72992 35.92 9.72992C36.84 9.72992 37.36 9.04993 37.36 8.14993V3.66992H39.5V11.4899H37.46V10.4999C36.94 11.2799 36.18 11.6699 35.21 11.6699C33.5 11.6699 32.42 10.4799 32.42 8.61992V8.61992Z" fill="#0EE06E"/>
<path d="M40.42 9.28001L42.28 8.85001C42.37 9.46001 42.85 9.91001 43.79 9.91001C44.51 9.91001 44.91 9.61001 44.91 9.25001C44.91 8.95001 44.75 8.73001 44.01 8.57001L42.79 8.31001C41.22 7.97001 40.56 7.25001 40.56 5.93001C40.56 4.61001 41.67 3.51001 43.75 3.51001C45.96 3.51001 46.85 4.84001 46.94 5.71001L45.07 6.12001C44.98 5.66001 44.64 5.16001 43.71 5.16001C43.12 5.16001 42.68 5.42001 42.68 5.81001C42.68 6.13001 42.9 6.31001 43.29 6.40001L45.07 6.81001C46.43 7.12001 47.06 7.93001 47.06 9.08001C47.06 10.32 46.07 11.62 43.81 11.62C41.32 11.62 40.51 10.13 40.43 9.27001L40.42 9.28001Z" fill="#0EE06E"/>
<path d="M51.15 11.4799C49.77 11.4799 48.84 10.7099 48.84 9.18993V5.52993H47.53V3.65993H48.84V1.91993L50.98 1.29993V3.65993H52.56V5.52993H50.98V8.79993C50.98 9.36993 51.28 9.59993 51.85 9.59993H52.67V11.4699H51.15V11.4799Z" fill="#0EE06E"/>
<path d="M53.8301 11.48V0.719971H55.9701V11.49H53.8301V11.48Z" fill="#0EE06E"/>
<path d="M62.42 3.66992H64.71L61.45 14.2899H59.16L60.06 11.4899H58.88L56.73 3.66992H59.02L60.63 9.71992L62.42 3.66992Z" fill="#0EE06E"/>
<path d="M0.300049 5.42997H5.31005V1.42997L9.32005 5.42997L5.31005 9.42997V11.48H10.18V5.42997H14.64V0.719971H0.300049V5.42997Z" fill="#0EE06E"/>
</svg>
