<svg width="65" height="13" viewBox="0 0 65 13" fill="none" xmlns="http://www.w3.org/2000/svg">
<path d="M13.5701 3.53016C13.9401 4.14016 14.2101 4.78017 14.2901 5.48017C14.5501 7.71017 13.6101 9.39016 11.8101 10.6202C9.95008 11.8902 7.87009 12.1802 5.68009 11.7402C5.63009 11.7302 5.57009 11.7302 5.52009 11.7102C5.03009 11.4902 4.60009 11.6302 4.18009 11.9202C3.85009 12.1402 3.50008 12.3302 3.15008 12.5102C3.05008 12.5602 2.91008 12.6002 2.82008 12.5602C2.67008 12.4902 2.74009 12.3402 2.77009 12.2102C2.86009 11.8602 2.96009 11.5102 3.05009 11.1602C3.15009 10.8002 3.10008 10.6802 2.79008 10.4402C1.96008 9.81016 1.28008 9.04017 0.900084 8.06017C0.100084 6.01017 0.530085 4.18016 2.01009 2.60016C3.13009 1.41016 4.55008 0.770165 6.15008 0.530165C7.72008 0.290165 9.25008 0.470167 10.7101 1.11017C11.5701 1.49017 12.3301 2.02017 12.9601 2.72017C12.9901 2.75017 13.0101 2.78017 13.0501 2.83017C12.6401 3.01017 12.2501 3.19017 11.8601 3.36017C9.98009 4.20017 8.09008 5.03017 6.22008 5.87017C5.90008 6.01017 5.64008 5.99017 5.36008 5.78017C4.93008 5.46017 4.48008 5.15017 4.04008 4.84017C3.93008 4.76017 3.81008 4.71017 3.69008 4.81017C3.56008 4.92017 3.57009 5.04017 3.64009 5.18017C4.05009 6.07017 4.46008 6.97017 4.87008 7.86017C5.03008 8.21017 5.30009 8.29016 5.64009 8.10016C7.64009 6.95016 9.63008 5.79017 11.6301 4.64017C12.2701 4.27017 12.9101 3.90017 13.5801 3.52017L13.5701 3.53016Z" fill="#13CB08"/>
<path d="M23.03 3.81028C22.84 4.49028 22.67 5.13028 22.49 5.77028C22.09 7.15028 21.67 8.52027 21.28 9.89027C21.22 10.1003 21.08 10.0403 20.95 10.0603C20.79 10.0803 20.75 10.0003 20.72 9.87027C20.25 8.10027 19.79 6.33028 19.32 4.56028C19.2 4.11028 19.08 3.66028 18.96 3.20028H19.46L21.05 9.39027C21.08 9.27027 21.09 9.19027 21.11 9.12027C21.42 8.02027 21.73 6.93028 22.04 5.83028C22.27 5.01028 22.52 4.19027 22.75 3.37027C22.79 3.23027 22.85 3.17027 22.99 3.19027C23.11 3.21027 23.26 3.13027 23.31 3.34027C23.78 5.18027 24.27 7.03027 24.74 8.87027C24.78 9.03027 24.8 9.19027 24.87 9.35027C24.9 9.25027 24.92 9.15027 24.95 9.05027C25.45 7.30027 25.94 5.56028 26.44 3.81028C26.46 3.74028 26.48 3.67027 26.5 3.59027C26.58 3.30361 26.78 3.17361 27.1 3.20028C27.02 3.48028 26.94 3.76028 26.86 4.04028C26.28 5.98028 25.69 7.92027 25.12 9.87027C25.05 10.1003 24.91 10.0503 24.76 10.0603C24.59 10.0803 24.56 9.97027 24.53 9.84027C24.07 8.02027 23.6 6.20027 23.13 4.39027C23.09 4.21027 23.06 4.03028 23.02 3.81028H23.03Z" fill="black"/>
<path d="M52.5701 7.05994V10.1499H52.0801V9.93993C52.0801 7.75993 52.0801 5.57994 52.0801 3.39994C52.0801 3.26994 52.0801 3.16993 52.2401 3.15993C52.8901 3.07993 53.5501 3.00993 54.2001 3.10993C54.6901 3.18993 55.1401 3.34994 55.4801 3.73994C56.3101 4.69994 55.9501 6.29993 54.7801 6.84993C54.1101 7.15993 53.4001 7.17994 52.6901 7.07994C52.6601 7.07994 52.6201 7.06994 52.5601 7.05994H52.5701ZM53.4801 6.74993C53.7101 6.70993 54.0201 6.68993 54.3101 6.60993C55.0401 6.40993 55.4501 5.81993 55.4401 5.01993C55.4401 4.26993 55.0301 3.74993 54.2901 3.53993C53.7601 3.39993 53.2301 3.43993 52.7001 3.50993C52.5701 3.52993 52.5601 3.60993 52.5601 3.70993C52.5601 4.61993 52.5601 5.53993 52.5601 6.44993C52.5601 6.58993 52.6201 6.64993 52.7501 6.65993C52.9701 6.67993 53.1801 6.69994 53.4801 6.73994V6.74993Z" fill="black"/>
<path d="M38.4002 10.0501H37.9302V3.1001H38.4002V5.9801L38.4402 6.0001C38.4802 5.9501 38.5102 5.9001 38.5502 5.8501C39.1902 4.9301 40.5502 4.7901 41.2902 5.5701C41.6202 5.9201 41.7602 6.3601 41.7702 6.8301C41.7902 7.8801 41.7702 8.9201 41.7702 9.9701C41.7702 10.0001 41.7702 10.0201 41.7502 10.0601H41.2902V9.8401C41.2902 8.9301 41.2902 8.0201 41.2902 7.1101C41.2902 6.9001 41.2602 6.6901 41.2002 6.4801C40.9102 5.3501 39.7902 5.3101 39.1802 5.7001C38.6702 6.0301 38.3802 6.4801 38.3802 7.1101C38.3802 8.0101 38.3802 8.9101 38.3802 9.8201V10.0601L38.4002 10.0501Z" fill="black"/>
<path d="M30.79 9.58023L30.95 9.85023C30.85 9.89023 30.76 9.94023 30.67 9.97023C30.14 10.1402 29.59 10.2102 29.03 10.1302C28.16 10.0002 27.55 9.51023 27.29 8.68023C26.99 7.71023 27.07 6.77023 27.65 5.92023C28.25 5.03023 29.59 4.78023 30.42 5.39023C30.92 5.75023 31.12 6.29023 31.21 6.87023C31.23 7.03023 31.23 7.20023 31.25 7.36023C31.26 7.53023 31.2 7.58023 31.03 7.58023C29.98 7.58023 28.93 7.58023 27.89 7.58023C27.59 7.58023 27.59 7.58023 27.63 7.87023C27.66 8.07023 27.68 8.28023 27.74 8.47023C28 9.33023 28.67 9.80023 29.56 9.74023C29.96 9.71023 30.37 9.64023 30.81 9.58023H30.79ZM30.72 7.17023C30.74 6.79023 30.66 6.45023 30.49 6.14023C30.31 5.81023 30.03 5.58023 29.65 5.51023C29.02 5.38023 28.48 5.54023 28.07 6.05023C27.81 6.38023 27.66 6.75023 27.63 7.18023H30.72V7.17023Z" fill="black"/>
<path d="M56.72 5.79996C56.5 5.47996 56.51 5.44996 56.83 5.30996C57.28 5.10996 57.75 4.99996 58.25 5.06996C59.11 5.18996 59.61 5.69996 59.64 6.56996C59.68 7.36996 59.66 8.17996 59.68 8.97996C59.68 9.31996 59.71 9.66996 59.73 10.04C59.64 10.04 59.51 10.05 59.38 10.04C59.33 10.04 59.26 9.94996 59.25 9.89996C59.21 9.74996 59.2 9.59996 59.18 9.43996C59.04 9.56996 58.91 9.69996 58.77 9.79996C58.3 10.14 57.77 10.24 57.21 10.11C56.1 9.84996 55.94 8.51996 56.56 7.80996C56.92 7.39996 57.41 7.21996 57.93 7.12996C58.29 7.06996 58.65 7.04996 59.01 7.03996C59.17 7.03996 59.22 6.97996 59.2 6.83996C59.17 6.63996 59.16 6.42996 59.11 6.23996C58.96 5.68996 58.44 5.38996 57.8 5.45996C57.41 5.49996 57.05 5.58996 56.72 5.80996V5.79996ZM59.24 8.05996H59.19V7.88996C59.19 7.41996 59.19 7.41996 58.73 7.42996C58.23 7.43996 57.75 7.49996 57.3 7.74996C56.75 8.04996 56.59 8.56996 56.77 9.14996C56.87 9.46996 57.1 9.65996 57.43 9.72996C58.1 9.87996 58.81 9.53996 59.07 8.90996C59.18 8.64996 59.18 8.33996 59.24 8.05996V8.05996Z" fill="black"/>
<path d="M46.1101 10.0301C45.5501 10.0701 45.6601 10.1001 45.5701 9.58015C45.5701 9.54015 45.5601 9.49014 45.5501 9.44014C45.3901 9.58014 45.2501 9.72015 45.0901 9.83015C44.6201 10.1501 44.1001 10.2501 43.5401 10.1101C43.0301 9.98015 42.7001 9.65015 42.6001 9.13015C42.4801 8.53015 42.6401 8.00015 43.1301 7.61015C43.5401 7.29015 44.0301 7.15015 44.5401 7.09015C44.8201 7.06015 45.1001 7.06014 45.3801 7.03014C45.4401 7.03014 45.5401 6.96014 45.5501 6.92014C45.5701 6.55014 45.5201 6.19014 45.3001 5.89014C45.0101 5.49014 44.5801 5.42014 44.1301 5.46014C43.7601 5.49014 43.4101 5.59014 43.0701 5.82014L42.9201 5.46014C43.0801 5.39014 43.2201 5.30015 43.3801 5.24015C43.8401 5.06015 44.3001 5.01015 44.7901 5.09015C45.4601 5.20015 45.9201 5.70014 46.0101 6.44014C46.0401 6.68014 46.0501 6.92015 46.0501 7.15015C46.0501 7.83015 46.0501 8.50015 46.0501 9.18015C46.0501 9.46015 46.0901 9.73015 46.1101 10.0201V10.0301ZM45.5601 8.07014C45.5601 7.91014 45.5601 7.74015 45.5601 7.58015C45.5601 7.47015 45.5201 7.41015 45.4001 7.43015C45.0001 7.47015 44.5901 7.48014 44.2001 7.55014C43.8301 7.61014 43.4901 7.78014 43.2701 8.10014C43.0201 8.45014 43.0101 8.84014 43.1701 9.23014C43.3201 9.59014 43.6301 9.75015 44.0001 9.77015C44.4201 9.79015 44.8101 9.67014 45.1301 9.37014C45.5101 9.02014 45.6201 8.58015 45.5601 8.08015V8.07014Z" fill="black"/>
<path d="M36.8902 9.48028L37.1202 9.86028C36.7602 9.94028 36.4402 10.0403 36.1002 10.0903C35.5002 10.1903 34.9002 10.1903 34.3102 10.0303C33.3202 9.76028 32.6302 9.15028 32.2802 8.19028C31.8902 7.11028 31.8902 6.01028 32.3702 4.96028C32.9302 3.74028 33.9502 3.15028 35.2702 3.08028C35.7602 3.05028 36.2602 3.08028 36.7302 3.23028C36.8402 3.27028 36.9602 3.31028 37.0602 3.35028C37.0602 3.39028 37.0602 3.40028 37.0602 3.40028C36.9102 3.73028 36.9102 3.72028 36.5602 3.63028C35.5602 3.36028 34.5902 3.41028 33.7002 4.00028C33.2902 4.28028 32.9802 4.66028 32.8002 5.12028C32.4302 6.04028 32.3902 6.98027 32.7102 7.92027C33.0802 9.02027 34.0002 9.68028 35.1702 9.73028C35.7502 9.75028 36.3202 9.70028 36.8802 9.47028L36.8902 9.48028Z" fill="black"/>
<path d="M62.41 9.32038C62.9 8.01038 63.38 6.74038 63.86 5.47038C63.9667 5.19038 64.1833 5.07705 64.51 5.13038C64.3 5.66038 64.09 6.18038 63.88 6.70038C63.45 7.77038 63.02 8.84038 62.58 9.91038C62.35 10.4704 62.07 11.0204 61.67 11.4804C61.38 11.8104 61.03 12.0504 60.61 12.2304L60.41 11.9004C60.7 11.6804 61 11.5004 61.26 11.2704C61.62 10.9504 61.85 10.5404 62.05 10.1104C62.13 9.94038 62.13 9.79038 62.05 9.62038C61.47 8.18038 60.89 6.73038 60.31 5.28038C60.29 5.23038 60.27 5.18038 60.24 5.09038C60.4 5.09038 60.54 5.08038 60.68 5.09038C60.73 5.09038 60.79 5.17038 60.81 5.22038C61.33 6.53038 61.85 7.85038 62.36 9.17038C62.37 9.21038 62.39 9.24038 62.42 9.30038L62.41 9.32038Z" fill="black"/>
<path d="M49.5301 5.1701V5.5501C49.1601 5.5501 48.7901 5.5501 48.4201 5.5501C48.2334 5.5501 48.1401 5.6401 48.1401 5.8201C48.1401 6.7801 48.1401 7.7501 48.1401 8.7101C48.1401 8.8501 48.1501 8.9801 48.1801 9.1201C48.2601 9.5901 48.5301 9.7901 49.0001 9.7601C49.2201 9.7401 49.3734 9.83343 49.4601 10.0401C48.7701 10.4501 47.9001 10.0901 47.7301 9.3201C47.6801 9.0901 47.6601 8.8501 47.6601 8.6101C47.6601 7.6801 47.6601 6.7501 47.6601 5.8201V5.5601H46.8601V5.1701C47.0601 5.1701 47.2601 5.1601 47.4601 5.1701C47.6301 5.1801 47.6701 5.1201 47.6701 4.9601C47.6601 4.6801 47.6701 4.3901 47.6701 4.1001H48.1601C48.1601 4.3801 48.1701 4.6601 48.1601 4.9401C48.1501 5.1301 48.2101 5.1901 48.4001 5.1801C48.7701 5.1701 49.1501 5.1801 49.5501 5.1801L49.5301 5.1701Z" fill="black"/>
</svg>
